<?xml version="1.0" encoding="UTF-8"?>
<svg xmlns="http://www.w3.org/2000/svg" xmlns:xlink="http://www.w3.org/1999/xlink" width="119px" height="20px" viewBox="0 0 399 239" version="1.1">
<g id="surface1">
<path style=" stroke:none;fill-rule:nonzero;fill:rgb(100%,100%,100%);fill-opacity:1;" d="M 199.5 0 L 399.003906 0 L 399.003906 199.617188 L 199.496094 199.617188 Z M 199.5 0 "/>
<path style=" stroke:none;fill-rule:nonzero;fill:rgb(0%,0%,0%);fill-opacity:1;" d="M 0 0 L 199.5 0 L 199.5 199.617188 L 0 199.617188 Z M 0 0 "/>
<path style=" stroke:none;fill-rule:nonzero;fill:rgb(100%,100%,100%);fill-opacity:1;" d="M 182.738281 55.707031 L 133.1875 84.078125 C 125.925781 72.414062 115.589844 67.953125 105.960938 67.871094 C 88.421875 67.722656 73.296875 81.816406 73.304688 99.792969 C 73.296875 118.285156 88.46875 131.699219 105.066406 131.980469 C 114.988281 132.148438 127.0625 126.617188 133.195312 115.648438 L 182.742188 144.09375 C 164.730469 175.164062 133.851562 189.195312 105 189.144531 C 59.253906 189.070312 16.214844 152.460938 16.21875 99.867188 C 16.21875 47.550781 59.429688 10.308594 105.175781 10.601562 C 134.84375 10.796875 165.085938 24.765625 182.742188 55.703125 Z M 182.738281 55.707031 "/>
<path style=" stroke:none;fill-rule:nonzero;fill:rgb(0%,0%,0%);fill-opacity:1;" d="M 213.828125 14.304688 L 270.800781 14.304688 L 327.832031 85.660156 L 327.832031 14.304688 L 384.761719 14.304688 L 384.765625 185.382812 L 327.835938 185.382812 L 270.804688 114.148438 L 270.804688 185.382812 L 213.816406 185.382812 Z M 213.828125 14.304688 "/>
<path style=" stroke:none;fill-rule:nonzero;fill:rgb(0%,0%,0%);fill-opacity:1;" d="M 22.816406 214.09375 C 25.949219 214.976562 28.585938 217.171875 30.289062 219.921875 L 23.726562 223.675781 C 22.585938 222.082031 20.703125 220.9375 18.679688 221.238281 C 16.683594 221.433594 14.933594 222.953125 14.410156 224.886719 C 13.597656 228.316406 16.050781 231.164062 19.050781 231.3125 C 20.730469 231.363281 22.519531 230.621094 23.726562 228.832031 L 30.289062 232.625 C 28.121094 236.207031 24.289062 238.636719 20.109375 238.988281 C 12.355469 239.230469 5.671875 233.289062 6.742188 224.238281 C 8.179688 216.394531 15.472656 212.058594 22.816406 214.09375 Z M 22.816406 214.09375 "/>
<path style=" stroke:none;fill-rule:nonzero;fill:rgb(0%,0%,0%);fill-opacity:1;" d="M 125.191406 213.625 C 122.746094 213.453125 120.230469 213.980469 117.96875 215.292969 C 111.9375 218.792969 109.851562 226.640625 113.347656 232.675781 C 116.84375 238.710938 124.6875 240.796875 130.71875 237.300781 C 136.488281 233.953125 138.585938 226.640625 135.703125 220.726562 C 135.613281 220.445312 135.488281 220.175781 135.339844 219.921875 C 135.339844 219.917969 135.339844 219.917969 135.335938 219.917969 C 135.335938 219.914062 135.335938 219.914062 135.335938 219.914062 C 135.1875 219.652344 135.007812 219.402344 134.804688 219.179688 C 132.558594 215.878906 128.980469 213.894531 125.191406 213.625 Z M 124.664062 221.691406 C 126.128906 221.785156 127.503906 222.59375 128.3125 223.992188 C 129.609375 226.230469 128.878906 228.972656 126.644531 230.269531 C 124.410156 231.566406 121.667969 230.835938 120.371094 228.597656 C 119.078125 226.363281 119.808594 223.617188 122.042969 222.324219 L 122.042969 222.320312 C 122.878906 221.835938 123.789062 221.636719 124.664062 221.691406 Z M 124.664062 221.691406 "/>
<path style=" stroke:none;fill-rule:nonzero;fill:rgb(0%,0%,0%);fill-opacity:1;" d="M 328.996094 213.625 C 326.550781 213.453125 324.035156 213.980469 321.773438 215.292969 C 315.742188 218.792969 313.65625 226.640625 317.152344 232.675781 C 320.648438 238.710938 328.492188 240.796875 334.523438 237.300781 C 340.292969 233.953125 342.390625 226.636719 339.507812 220.722656 C 339.414062 220.445312 339.292969 220.175781 339.144531 219.921875 C 339.144531 219.917969 339.144531 219.917969 339.140625 219.917969 C 339.140625 219.914062 339.140625 219.914062 339.140625 219.914062 C 338.992188 219.648438 338.8125 219.402344 338.609375 219.179688 C 336.363281 215.878906 332.785156 213.890625 328.996094 213.625 Z M 328.46875 221.691406 C 329.933594 221.785156 331.308594 222.59375 332.117188 223.992188 C 333.410156 226.230469 332.683594 228.972656 330.449219 230.269531 C 328.214844 231.566406 325.472656 230.835938 324.175781 228.597656 C 322.882812 226.363281 323.613281 223.617188 325.84375 222.324219 L 325.84375 222.320312 C 326.683594 221.835938 327.59375 221.636719 328.46875 221.691406 Z M 328.46875 221.691406 "/>
<path style=" stroke:none;fill-rule:nonzero;fill:rgb(0%,0%,0%);fill-opacity:1;" d="M 50.582031 214.105469 L 38.417969 214.105469 L 30.796875 238.480469 L 39.363281 238.480469 L 40.613281 234.394531 L 48.414062 234.394531 L 49.640625 238.480469 L 58.203125 238.480469 Z M 44.503906 220.828125 L 46.675781 228.394531 L 42.320312 228.394531 Z M 44.503906 220.828125 "/>
<path style=" stroke:none;fill-rule:nonzero;fill:rgb(0%,0%,0%);fill-opacity:1;" d="M 60.65625 214.105469 L 60.65625 238.480469 L 68.726562 238.480469 L 68.726562 231.355469 L 71.355469 231.355469 L 74.96875 238.480469 L 83.941406 238.480469 L 79.242188 230.484375 C 82.863281 228.164062 84.101562 225.28125 83.964844 222.390625 C 83.96875 218.019531 80.035156 214.226562 75.734375 214.105469 Z M 74.09375 221.214844 C 75.132812 221.226562 75.890625 222.238281 75.9375 223.105469 C 75.960938 224.34375 75.019531 225.273438 74.085938 225.292969 L 68.726562 225.300781 L 68.726562 221.214844 Z M 74.09375 221.214844 "/>
<path style=" stroke:none;fill-rule:nonzero;fill:rgb(0%,0%,0%);fill-opacity:1;" d="M 86.195312 221.21875 L 86.195312 214.101562 L 110.597656 214.101562 L 110.597656 221.21875 L 102.964844 221.21875 L 102.964844 238.476562 L 93.835938 238.476562 L 93.835938 221.21875 Z M 86.195312 221.21875 "/>
<path style=" stroke:none;fill-rule:nonzero;fill:rgb(0%,0%,0%);fill-opacity:1;" d="M 167.035156 214.105469 L 175.085938 214.105469 L 183.332031 224.242188 L 183.332031 214.105469 L 191.390625 214.105469 L 191.390625 238.480469 L 183.332031 238.480469 L 175.085938 228.324219 L 175.085938 238.480469 L 167.035156 238.480469 Z M 167.035156 214.105469 "/>
<path style=" stroke:none;fill-rule:nonzero;fill:rgb(0%,0%,0%);fill-opacity:1;" d="M 207.863281 214.105469 L 215.914062 214.105469 L 224.160156 224.242188 L 224.160156 214.105469 L 232.214844 214.105469 L 232.214844 238.480469 L 224.160156 238.480469 L 215.914062 228.324219 L 215.914062 238.480469 L 207.863281 238.480469 Z M 207.863281 214.105469 "/>
<path style=" stroke:none;fill-rule:nonzero;fill:rgb(0%,0%,0%);fill-opacity:1;" d="M 235.71875 214.105469 L 256.988281 214.105469 L 256.988281 221.214844 L 243.777344 221.214844 L 243.777344 223.710938 L 254.902344 223.710938 L 254.902344 229.40625 L 243.777344 229.40625 L 243.777344 231.972656 L 256.988281 231.972656 L 256.988281 238.480469 L 235.71875 238.480469 Z M 235.71875 214.105469 "/>
<path style=" stroke:none;fill-rule:nonzero;fill:rgb(0%,0%,0%);fill-opacity:1;" d="M 259.679688 221.21875 L 259.679688 214.101562 L 284.085938 214.101562 L 284.085938 221.21875 L 276.449219 221.21875 L 276.449219 238.476562 L 267.320312 238.476562 L 267.320312 221.21875 Z M 259.679688 221.21875 "/>
<path style=" stroke:none;fill-rule:nonzero;fill:rgb(0%,0%,0%);fill-opacity:1;" d="M 286.121094 214.105469 L 294.308594 214.105469 C 294.308594 214.105469 296.359375 224.75 296.367188 224.792969 L 300.402344 214.976562 L 304.511719 224.769531 L 306.566406 214.105469 L 314.679688 214.105469 L 310.039062 238.480469 L 303.289062 238.480469 L 300.402344 231.902344 L 297.476562 238.480469 L 290.839844 238.480469 C 290.839844 238.480469 286.210938 214.65625 286.125 214.105469 Z M 286.121094 214.105469 "/>
<path style=" stroke:none;fill-rule:nonzero;fill:rgb(0%,0%,0%);fill-opacity:1;" d="M 343.203125 214.105469 L 343.203125 238.480469 L 351.273438 238.480469 L 351.289062 231.355469 L 353.902344 231.355469 L 357.515625 238.480469 L 366.488281 238.480469 L 361.789062 230.484375 C 365.410156 228.164062 366.648438 225.28125 366.511719 222.390625 C 366.515625 218.019531 362.582031 214.226562 358.28125 214.105469 Z M 356.640625 221.214844 C 357.679688 221.226562 358.4375 222.238281 358.480469 223.105469 C 358.507812 224.34375 357.566406 225.273438 356.632812 225.292969 L 351.273438 225.300781 L 351.273438 221.214844 Z M 356.640625 221.214844 "/>
<path style=" stroke:none;fill-rule:nonzero;fill:rgb(0%,0%,0%);fill-opacity:1;" d="M 369.113281 238.480469 L 369.113281 214.101562 L 377.261719 214.101562 L 377.261719 222 L 383.335938 214.101562 L 393.722656 214.101562 L 384.296875 225.722656 L 393.722656 238.480469 L 383.335938 238.480469 L 377.261719 229.40625 L 377.261719 238.480469 Z M 369.113281 238.480469 "/>
<path style=" stroke:none;fill-rule:nonzero;fill:rgb(0%,0%,0%);fill-opacity:1;" d="M 152.722656 213.625 C 150.277344 213.453125 147.761719 213.980469 145.5 215.292969 C 139.46875 218.792969 137.382812 226.640625 140.878906 232.675781 C 144.375 238.710938 152.21875 240.796875 158.246094 237.300781 C 164.015625 233.953125 166.117188 226.640625 163.234375 220.726562 C 163.144531 220.445312 163.019531 220.175781 162.871094 219.921875 C 162.871094 219.917969 162.871094 219.917969 162.867188 219.917969 C 162.867188 219.914062 162.867188 219.914062 162.867188 219.914062 C 162.71875 219.648438 162.539062 219.402344 162.335938 219.179688 C 160.085938 215.878906 156.507812 213.890625 152.722656 213.625 Z M 152.195312 221.691406 C 153.660156 221.785156 155.035156 222.59375 155.84375 223.992188 C 157.136719 226.230469 156.410156 228.972656 154.175781 230.269531 C 151.941406 231.566406 149.199219 230.835938 147.902344 228.597656 C 146.609375 226.363281 147.335938 223.617188 149.570312 222.324219 L 149.570312 222.320312 C 150.410156 221.835938 151.320312 221.636719 152.195312 221.691406 Z M 152.195312 221.691406 "/>
</g>
</svg>
