<?xml version="1.0" encoding="UTF-8"?>
<svg xmlns="http://www.w3.org/2000/svg" xmlns:xlink="http://www.w3.org/1999/xlink" width="119px" height="20px" viewBox="0 0 250 82" version="1.1">
<g id="surface1">
<path style=" stroke:none;fill-rule:nonzero;fill:rgb(90.196078%,11.372549%,16.470588%);fill-opacity:1;" d="M 96.003906 71.628906 C 86.699219 65.617188 74.074219 64.5625 53.714844 70.226562 C 32.011719 75.34375 24.773438 78.625 15.269531 72.039062 C 11.617188 68.804688 10.308594 63.597656 11.285156 56.097656 C 13.554688 43.871094 19.679688 32.101562 30.5625 19.050781 C 36.636719 12.257812 42.273438 6.433594 49.714844 4.09375 C 55.414062 2.625 54.882812 7.121094 54.191406 7.761719 C 53.464844 7.761719 52.242188 7.878906 51.296875 8.496094 C 50.527344 9.09375 48.421875 11.019531 48.308594 13.613281 C 48.148438 17.582031 52.242188 16.753906 54.007812 14.574219 C 55.910156 12.121094 58.722656 7.417969 56.511719 3.035156 C 55.582031 1.476562 53.980469 0.398438 51.992188 0.03125 C 45.179688 -0.359375 38.832031 2.898438 32.976562 6.5 C 20.167969 15.425781 9.925781 27.789062 4.128906 41.324219 C 0.785156 49.492188 -2.238281 61.1875 2.292969 70.710938 C 5.796875 77.316406 13.074219 80.824219 21.757812 80.09375 C 27.84375 79.449219 35.207031 77.476562 40.15625 76.285156 C 45.109375 75.089844 70.457031 66.351562 78.785156 81.5625 C 78.785156 81.5625 81.554688 76.167969 88.476562 76.054688 C 94.164062 75.527344 102.375 77.707031 108.351562 82.109375 C 106.359375 79.105469 100.714844 74.679688 96.003906 71.628906 Z M 96.003906 71.628906 "/>
<path style=" stroke:none;fill-rule:nonzero;fill:rgb(90.196078%,11.372549%,16.470588%);fill-opacity:1;" d="M 56.300781 20.585938 C 51.558594 17.464844 42.03125 23.429688 34.398438 33.660156 C 27.421875 42.839844 24.40625 53.503906 27.6875 58.4375 C 32.566406 64.242188 41.621094 55.796875 45.472656 51.28125 L 45.96875 50.753906 C 48.589844 47.929688 50.613281 44.535156 52.570312 41.277344 C 52.570312 41.277344 54.371094 38.296875 54.457031 38.15625 C 55.570312 37.953125 56.910156 37.628906 58.417969 37.195312 C 58.398438 37.261719 52.640625 46.964844 53.230469 51.78125 C 53.410156 53.253906 53.273438 58.621094 58.496094 60.25 C 65.460938 61.417969 71.023438 56.003906 75.925781 51.1875 C 75.925781 51.1875 76.761719 50.386719 77.234375 49.925781 C 77.117188 50.40625 76.960938 51.050781 76.960938 51.050781 C 74.921875 58.160156 77.667969 59.652344 79.390625 60.203125 C 84.585938 61.71875 90.789062 54.148438 90.8125 54.148438 C 90.648438 56.53125 90.179688 58.503906 92.683594 60.089844 C 95.050781 60.9375 97.445312 59.644531 99.265625 58.425781 C 105.820312 53.792969 111.101562 46.539062 115.367188 40.269531 L 112.644531 40.269531 C 112.613281 40.269531 105.929688 49.984375 101.59375 52.097656 C 101.585938 52.097656 100.796875 52.503906 100.339844 52.179688 C 99.777344 51.699219 100 50.695312 100.347656 49.988281 C 100.371094 49.941406 117.097656 20.835938 117.097656 20.835938 L 109.199219 20.835938 C 109.199219 20.835938 108.335938 22.238281 108.265625 22.328125 C 108.214844 22.285156 108.085938 22.042969 108 21.925781 C 103.105469 15.136719 92.023438 25.582031 83.679688 37.695312 C 80.46875 42.351562 76.378906 47.59375 72.136719 51.378906 C 72.136719 51.378906 65.855469 57.15625 63.171875 53.003906 C 62.191406 51.261719 62.492188 48.710938 63.046875 47.039062 C 66.171875 38.113281 71.554688 30.015625 77.683594 25.128906 C 79.414062 23.777344 81.292969 23.386719 82.226562 23.960938 C 83.117188 24.488281 83.261719 25.792969 82.699219 26.6875 C 81.269531 26.644531 80.128906 27.078125 79.199219 28.042969 C 77.367188 29.96875 76.730469 31.828125 77.3125 33.570312 C 80.140625 37.609375 85.78125 29.625 85.507812 24.761719 C 85.410156 23.019531 84.484375 21.367188 83.101562 20.5625 C 81.035156 19.324219 77.890625 19.644531 75.851562 20.632812 C 73.128906 21.664062 68.8125 25.265625 66.292969 28.066406 C 63.121094 31.574219 57.683594 35.476562 55.980469 35.039062 C 56.539062 33.546875 61.132812 24.117188 56.300781 20.585938 Z M 94.382812 34.535156 C 95.917969 32.402344 100.390625 26.6875 101.480469 25.726562 C 105.148438 22.488281 106.613281 23.914062 106.738281 24.921875 C 103.316406 31.070312 99.277344 38.113281 95.480469 44.445312 C 95.488281 44.421875 94.292969 46.257812 94.292969 46.257812 C 92.617188 48.824219 90.925781 51.027344 88.171875 52.5625 C 87.78125 52.679688 87.132812 52.726562 86.699219 52.402344 C 86.183594 52.058594 85.976562 51.484375 86.035156 50.890625 C 86.199219 48.917969 88.203125 42.882812 94.382812 34.535156 Z M 51.410156 38.226562 C 51.410156 38.226562 51.34375 38.433594 51.308594 38.5 C 51.300781 38.5 47.863281 44.121094 47.863281 44.121094 C 45.792969 46.898438 43.203125 50.386719 39.96875 52.058594 C 39.007812 52.378906 37.683594 52.585938 37.007812 51.738281 C 35.574219 50.019531 36.3125 47.632812 36.914062 45.707031 L 37.125 45.015625 C 38.84375 40.339844 41.574219 36.207031 44.226562 32.378906 C 44.261719 32.355469 44.335938 32.332031 44.363281 32.332031 C 44.367188 32.355469 44.378906 32.355469 44.382812 32.402344 C 46.050781 35.613281 49.175781 37.101562 51.511719 37.792969 C 51.523438 37.792969 51.539062 37.8125 51.539062 37.859375 C 51.539062 37.929688 51.503906 38.019531 51.410156 38.226562 Z M 54.664062 31.597656 C 54.652344 31.644531 53.136719 35.128906 53.136719 35.128906 C 52.917969 35.3125 52.570312 35.222656 52.171875 35.128906 L 51.492188 35.015625 C 49.359375 34.351562 47.746094 32.925781 47.25 31.230469 C 46.566406 27.925781 49.378906 25.335938 50.617188 24.394531 C 51.808594 23.566406 53.65625 23.132812 54.730469 23.980469 C 55.394531 24.761719 55.644531 25.769531 55.644531 26.871094 C 55.644531 28.363281 55.1875 30.039062 54.664062 31.597656 Z M 54.664062 31.597656 "/>
<path style=" stroke:none;fill-rule:nonzero;fill:rgb(90.196078%,11.372549%,16.470588%);fill-opacity:1;" d="M 154.523438 42.242188 C 153.761719 40.589844 151.953125 39.535156 150.023438 39.648438 C 143.769531 40.222656 137.648438 45.382812 134.433594 52.792969 C 132.75 56.601562 131.828125 59.746094 131.222656 64.746094 C 133.171875 62.496094 137.140625 58.804688 141.640625 56.785156 C 141.640625 56.785156 142.253906 51.992188 145.378906 47.722656 C 146.5625 45.957031 148.929688 43.113281 151.585938 43.871094 C 153.90625 44.648438 153.09375 51.097656 150.007812 57.335938 C 147.722656 61.921875 144.230469 66.511719 140.695312 69.675781 C 137.570312 72.339844 132.945312 75.550781 128.898438 73.074219 C 126.351562 71.558594 125.050781 68.394531 125.328125 64.308594 C 126.542969 52.726562 131.800781 42.859375 139.324219 31.621094 C 147.082031 21.183594 155.632812 10.46875 167.152344 4.757812 C 169.503906 3.5625 171.679688 3.289062 173.558594 4.023438 C 173.558594 4.023438 162.746094 9.988281 157.589844 21.023438 C 156.28125 23.820312 154.457031 27.605469 156.292969 30.953125 C 157.253906 32.699219 158.957031 32.835938 160.328125 32.742188 C 166.648438 31.273438 170.730469 25.355469 174.0625 19.945312 C 176 15.835938 177.71875 11.753906 177.71875 7.210938 C 177.71875 6.660156 177.6875 5.925781 177.640625 5.375 C 180.660156 3.769531 186.851562 6.613281 186.851562 6.613281 C 191.6875 8.222656 201.988281 16.136719 205.460938 17.648438 C 207.15625 15.675781 209.941406 12.695312 211.507812 11.203125 L 209.238281 9.804688 C 205.605469 7.578125 201.765625 5.46875 197.984375 3.378906 C 189.394531 -1.320312 182.40625 0.328125 178.847656 1.613281 C 177.449219 2.121094 176.171875 2.554688 176.171875 2.554688 C 173.53125 -0.335938 169.203125 -0.0625 166.011719 0.71875 C 154.539062 4.023438 143.886719 12.074219 132.464844 26.046875 C 124.070312 36.988281 118.863281 46.441406 116.085938 55.777344 C 113.945312 62.0625 113.296875 71.308594 118.519531 76.789062 C 122.960938 81.445312 128.847656 80.4375 133.003906 78.761719 C 142.011719 74.3125 150.109375 64.722656 154.144531 53.6875 C 155.117188 50.410156 156.199219 45.773438 154.523438 42.242188 Z M 175.234375 7.671875 C 174.042969 21.390625 163.414062 29.441406 160.78125 30.082031 C 159.1875 30.402344 156.46875 29.691406 158.898438 23.9375 C 162.472656 16.179688 168.578125 9.597656 175.128906 6.226562 C 175.289062 6.800781 175.28125 7.164062 175.234375 7.671875 Z M 175.234375 7.671875 "/>
<path style=" stroke:none;fill-rule:nonzero;fill:rgb(90.196078%,11.372549%,16.470588%);fill-opacity:1;" d="M 238.296875 9.414062 C 232.578125 12.671875 226.652344 14.78125 219.476562 14.046875 C 217.488281 16.296875 215.550781 18.613281 213.765625 21 C 223.839844 23.566406 234.515625 17.855469 240.46875 12.417969 C 246.769531 6.9375 250 0.03125 250 0.03125 C 250 0.03125 245.277344 5.445312 238.296875 9.414062 Z M 238.296875 9.414062 "/>
<path style=" stroke:none;fill-rule:nonzero;fill:rgb(90.196078%,11.372549%,16.470588%);fill-opacity:1;" d="M 125.996094 27.734375 L 130.226562 20.835938 L 122.726562 20.835938 L 118.496094 27.734375 Z M 125.996094 27.734375 "/>
<path style=" stroke:none;fill-rule:nonzero;fill:rgb(90.196078%,11.372549%,16.470588%);fill-opacity:1;" d="M 219.445312 72.265625 C 218.640625 72.816406 217.507812 72.394531 217.929688 71.132812 C 218.984375 67.921875 223.179688 61.375 223.179688 61.375 L 234.867188 40.585938 L 226.863281 40.585938 C 226.480469 41.210938 225.667969 42.652344 225.667969 42.652344 C 225.296875 42.03125 224.191406 40.65625 223.734375 40.359375 C 221.777344 39.121094 218.910156 39.707031 216.929688 40.828125 C 208.324219 45.878906 202.046875 55.851562 197.09375 63.628906 C 197.09375 63.628906 191.878906 72.273438 188.988281 72.914062 C 186.726562 73.097656 186.960938 70.046875 187.058594 69.335938 C 187.933594 64.195312 189.960938 59.308594 192.003906 54.882812 C 196.160156 51.992188 200.90625 48.207031 205.214844 44.054688 C 214.570312 35.085938 222.457031 24.921875 223.609375 22.652344 C 223.609375 22.652344 222.363281 22.902344 220.890625 22.949219 C 213.691406 33.019531 198.964844 47.65625 194.5 49.835938 C 196.476562 45.0625 209.257812 22.285156 220.132812 11.386719 L 221.84375 9.734375 C 224.492188 7.144531 227.234375 4.480469 229.371094 4.046875 C 229.59375 4.023438 229.886719 4.046875 230.136719 4.574219 C 230.230469 6.59375 229.484375 8.085938 228.625 9.78125 L 227.417969 12.257812 C 227.417969 12.257812 229.125 11.9375 230.246094 11.570312 C 231.546875 9.117188 232.984375 6.363281 232.453125 3.082031 C 232.277344 2.027344 231.515625 1.226562 230.519531 1.042969 C 227.277344 0.421875 223.742188 2.828125 220.894531 4.78125 L 220.78125 4.847656 C 206.15625 16.34375 193.804688 32.90625 183.007812 55.523438 C 182.226562 56.121094 179.203125 56.832031 178.6875 56.488281 C 179.753906 54.285156 181.097656 51.324219 181.769531 48.113281 C 181.882812 47.195312 181.992188 46.257812 181.992188 45.339844 C 181.992188 43.363281 181.519531 41.507812 179.757812 40.222656 C 177.6875 39.191406 175.132812 39.671875 173.410156 40.453125 C 165.691406 43.664062 159.925781 51.601562 155.761719 58.136719 C 153.523438 62.292969 151.292969 66.738281 150.671875 71.832031 C 150.238281 75.824219 151.125 78.394531 153.386719 79.679688 C 155.710938 80.871094 158.640625 79.632812 159.792969 79.035156 C 167.609375 74.90625 173.074219 66.625 177.378906 59.054688 C 177.550781 59.03125 179.902344 58.964844 181.679688 58.503906 C 181.703125 58.503906 181.714844 58.503906 181.753906 58.527344 C 181.652344 58.871094 180.734375 61.625 180.734375 61.625 C 178.003906 69.652344 176.742188 75.113281 179.320312 78.347656 C 183.003906 82.914062 189.101562 78.1875 194.0625 71.949219 C 193 79.425781 196.863281 80.597656 199.808594 80.023438 C 203.191406 79.105469 206.960938 75.480469 208.710938 73.625 C 208.148438 75.800781 208.304688 79.703125 211.382812 80.09375 C 213.492188 80.484375 215.070312 79.332031 216.894531 78.34375 C 223.449219 74.765625 231.292969 62.839844 233.328125 59.390625 L 230.660156 59.390625 C 227.765625 63.78125 224.082031 69.535156 219.445312 72.265625 Z M 160.628906 71.46875 C 160.210938 70.847656 160.074219 70.171875 160.0625 69.4375 C 159.980469 64.941406 164.804688 56.886719 168.210938 52.496094 C 168.21875 52.496094 168.21875 52.496094 168.21875 52.496094 C 169.644531 55.632812 172.878906 57.644531 174.828125 58.496094 C 172.40625 63.910156 164.09375 75.503906 160.628906 71.46875 Z M 176.195312 56.074219 C 175.964844 56.234375 171.890625 54.859375 171.101562 51.074219 C 170.433594 47.816406 172.671875 45.269531 174.835938 43.984375 C 175.765625 43.25 177.164062 43 178.191406 43.363281 C 179.144531 44.007812 179.402344 45.15625 179.402344 46.394531 C 179.402344 47.152344 179.300781 47.929688 179.214844 48.640625 C 179.214844 48.640625 179.195312 48.78125 179.195312 48.800781 C 178.515625 51.347656 177.476562 53.847656 176.195312 56.074219 Z M 208.882812 70.023438 C 208.878906 70.023438 208.109375 70.710938 208.109375 70.710938 C 207.011719 71.695312 205.878906 72.75 204.511719 72.222656 C 204.136719 72.085938 203.871094 71.582031 203.808594 71.191406 C 203.746094 68.371094 205.011719 65.753906 206.238281 63.207031 L 206.554688 62.542969 C 210.089844 56.625 214.195312 49.652344 220.230469 44.8125 C 221.246094 44.074219 222.347656 43.457031 223.511719 43.941406 C 223.78125 44.191406 224.09375 44.628906 224.09375 45.0625 C 224.09375 45.199219 223.96875 45.566406 223.898438 45.683594 C 222.214844 48.414062 220.609375 51.28125 219.050781 54.03125 C 216 59.46875 212.835938 65.089844 208.882812 70.023438 Z M 208.882812 70.023438 "/>
</g>
</svg>
