<?xml version="1.0" encoding="UTF-8"?>
<svg xmlns="http://www.w3.org/2000/svg" xmlns:xlink="http://www.w3.org/1999/xlink" width="119px" height="20px" viewBox="0 0 248 49" version="1.1">
<g id="surface1">
<path style=" stroke:none;fill-rule:nonzero;fill:rgb(0%,38.039216%,100%);fill-opacity:1;" d="M 28.769531 9.214844 L 14.382812 18.417969 L 28.769531 27.621094 L 14.382812 36.824219 L 0 27.570312 L 14.382812 18.367188 L 0 9.214844 L 14.382812 0.0117188 Z M 14.308594 39.785156 L 28.695312 30.582031 L 43.078125 39.785156 L 28.695312 48.988281 Z M 28.769531 27.570312 L 43.152344 18.367188 L 28.769531 9.214844 L 43.078125 0.0117188 L 57.460938 9.214844 L 43.078125 18.417969 L 57.460938 27.621094 L 43.078125 36.824219 Z M 28.769531 27.570312 "/>
<path style=" stroke:none;fill-rule:nonzero;fill:rgb(0%,0%,0%);fill-opacity:1;" d="M 68.746094 9.214844 L 80.375 9.214844 C 87.792969 9.214844 93.917969 13.519531 93.917969 23.34375 L 93.917969 25.40625 C 93.917969 35.308594 88.1875 39.757812 80.601562 39.757812 L 68.746094 39.757812 Z M 75.242188 14.761719 L 75.242188 34.1875 L 80.226562 34.1875 C 84.445312 34.1875 87.269531 31.425781 87.269531 25.285156 L 87.269531 23.667969 C 87.269531 17.523438 84.296875 14.761719 80.003906 14.761719 Z M 97.363281 15.0625 L 102.574219 15.0625 L 103.414062 20.804688 C 104.40625 16.902344 106.9375 14.8125 111.527344 14.8125 L 113.136719 14.8125 L 113.136719 21.402344 L 110.460938 21.402344 C 105.175781 21.402344 103.886719 23.242188 103.886719 28.46875 L 103.886719 39.835938 L 97.464844 39.835938 L 97.464844 15.0625 Z M 114.425781 27.945312 L 114.425781 27.25 C 114.425781 18.964844 119.710938 14.4375 126.902344 14.4375 C 134.242188 14.4375 139.375 18.964844 139.375 27.25 L 139.375 27.945312 C 139.375 36.078125 134.390625 40.457031 126.902344 40.457031 C 118.941406 40.382812 114.425781 36.101562 114.425781 27.945312 Z M 132.804688 27.871094 L 132.804688 27.25 C 132.804688 22.648438 130.496094 19.886719 126.828125 19.886719 C 123.230469 19.886719 120.851562 22.421875 120.851562 27.25 L 120.851562 27.871094 C 120.851562 32.324219 123.15625 34.859375 126.828125 34.859375 C 130.496094 34.785156 132.804688 32.324219 132.804688 27.871094 Z M 142.75 15.0625 L 148.105469 15.0625 L 148.726562 19.738281 C 150.015625 16.601562 152.769531 14.4375 156.835938 14.4375 C 163.109375 14.4375 167.25 18.964844 167.25 27.347656 L 167.25 28.042969 C 167.25 36.179688 162.664062 40.480469 156.835938 40.480469 C 152.941406 40.480469 150.261719 38.714844 148.949219 35.878906 L 148.949219 48.390625 L 142.675781 48.390625 Z M 160.730469 27.871094 L 160.730469 27.324219 C 160.730469 22.398438 158.199219 19.960938 154.828125 19.960938 C 151.230469 19.960938 148.847656 22.722656 148.847656 27.324219 L 148.847656 27.796875 C 148.847656 32.171875 151.15625 34.933594 154.753906 34.933594 C 158.445312 34.859375 160.730469 32.496094 160.730469 27.871094 Z M 176.75 35.257812 L 176.203125 39.785156 L 170.699219 39.785156 L 170.699219 6.777344 L 176.972656 6.777344 L 176.972656 19.4375 C 178.363281 16.203125 181.113281 14.4375 185.007812 14.4375 C 190.910156 14.511719 195.273438 18.59375 195.273438 26.800781 L 195.273438 27.570312 C 195.273438 35.78125 191.132812 40.480469 184.859375 40.480469 C 180.71875 40.382812 178.039062 38.464844 176.75 35.257812 Z M 188.679688 27.570312 L 188.679688 26.949219 C 188.679688 22.421875 186.222656 19.886719 182.777344 19.886719 C 179.253906 19.886719 176.800781 22.722656 176.800781 27.023438 L 176.800781 27.570312 C 176.800781 32.171875 179.179688 34.859375 182.703125 34.859375 C 186.472656 34.859375 188.679688 32.496094 188.679688 27.570312 Z M 198.027344 27.945312 L 198.027344 27.25 C 198.027344 18.964844 203.308594 14.4375 210.503906 14.4375 C 217.84375 14.4375 222.976562 18.964844 222.976562 27.25 L 222.976562 27.945312 C 222.976562 36.078125 217.917969 40.457031 210.503906 40.457031 C 202.542969 40.382812 198.027344 36.101562 198.027344 27.945312 Z M 216.453125 27.871094 L 216.453125 27.25 C 216.453125 22.648438 214.148438 19.886719 210.476562 19.886719 C 206.882812 19.886719 204.5 22.421875 204.5 27.25 L 204.5 27.871094 C 204.5 32.324219 206.808594 34.859375 210.476562 34.859375 C 214.171875 34.785156 216.453125 32.324219 216.453125 27.871094 Z M 231.382812 26.949219 L 222.730469 15.0625 L 230.144531 15.0625 L 235.128906 22.496094 L 240.1875 15.0625 L 247.527344 15.0625 L 238.75 26.875 L 248 39.785156 L 240.734375 39.785156 L 235.078125 31.578125 L 229.574219 39.785156 L 221.984375 39.785156 Z M 231.382812 26.949219 "/>
</g>
</svg>
