<?xml version="1.0" encoding="UTF-8"?>
<svg xmlns="http://www.w3.org/2000/svg" xmlns:xlink="http://www.w3.org/1999/xlink" width="119px" height="20px" viewBox="0 0 125 32" version="1.1">
<g id="surface1">
<path style=" stroke:none;fill-rule:nonzero;fill:rgb(0%,0%,0%);fill-opacity:1;" d="M 40.035156 25.070312 L 41.589844 21.441406 C 43.273438 22.703125 45.507812 23.359375 47.714844 23.359375 C 49.347656 23.359375 50.375 22.726562 50.375 21.769531 C 50.351562 19.097656 40.613281 21.191406 40.539062 14.488281 C 40.511719 11.085938 43.523438 8.464844 47.792969 8.464844 C 50.328125 8.464844 52.863281 9.097656 54.667969 10.53125 L 53.210938 14.234375 C 51.554688 13.179688 49.496094 12.421875 47.539062 12.421875 C 46.210938 12.421875 45.332031 13.050781 45.332031 13.859375 C 45.355469 16.480469 55.171875 15.042969 55.269531 21.441406 C 55.269531 24.917969 52.335938 27.363281 48.117188 27.363281 C 45.03125 27.363281 42.195312 26.632812 40.035156 25.070312 M 99.75 20.132812 C 98.972656 21.492188 97.515625 22.425781 95.832031 22.425781 C 93.347656 22.425781 91.339844 20.410156 91.339844 17.914062 C 91.339844 15.421875 93.347656 13.40625 95.832031 13.40625 C 97.515625 13.40625 98.972656 14.335938 99.75 15.699219 L 104.042969 13.304688 C 102.433594 10.429688 99.347656 8.464844 95.832031 8.464844 C 90.636719 8.464844 86.421875 12.699219 86.421875 17.914062 C 86.421875 23.128906 90.636719 27.363281 95.832031 27.363281 C 99.371094 27.363281 102.433594 25.421875 104.042969 22.527344 Z M 57.429688 0.628906 L 62.800781 0.628906 L 62.800781 27.011719 L 57.429688 27.011719 Z M 106.148438 0.628906 L 106.148438 27.011719 L 111.519531 27.011719 L 111.519531 19.097656 L 117.898438 27.011719 L 124.773438 27.011719 L 116.667969 17.613281 L 124.171875 8.84375 L 117.59375 8.84375 L 111.519531 16.125 L 111.519531 0.628906 Z M 78.765625 20.183594 C 77.988281 21.46875 76.378906 22.425781 74.574219 22.425781 C 72.089844 22.425781 70.082031 20.410156 70.082031 17.914062 C 70.082031 15.421875 72.089844 13.40625 74.574219 13.40625 C 76.378906 13.40625 77.988281 14.414062 78.765625 15.722656 Z M 78.765625 8.84375 L 78.765625 10.984375 C 77.886719 9.5 75.703125 8.464844 73.417969 8.464844 C 68.699219 8.464844 64.984375 12.648438 64.984375 17.890625 C 64.984375 23.128906 68.699219 27.363281 73.417969 27.363281 C 75.703125 27.363281 77.886719 26.332031 78.765625 24.84375 L 78.765625 26.984375 L 84.136719 26.984375 L 84.136719 8.84375 Z M 78.765625 8.84375 "/>
<path style=" stroke:none;fill-rule:nonzero;fill:rgb(87.843137%,11.764706%,35.294118%);fill-opacity:1;" d="M 6.828125 20.15625 C 6.828125 21.996094 5.347656 23.484375 3.515625 23.484375 C 1.683594 23.484375 0.199219 21.996094 0.199219 20.15625 C 0.199219 18.316406 1.683594 16.832031 3.515625 16.832031 L 6.828125 16.832031 Z M 8.484375 20.15625 C 8.484375 18.316406 9.964844 16.832031 11.796875 16.832031 C 13.628906 16.832031 15.109375 18.316406 15.109375 20.15625 L 15.109375 28.472656 C 15.109375 30.3125 13.628906 31.796875 11.796875 31.796875 C 9.964844 31.796875 8.484375 30.3125 8.484375 28.472656 Z M 8.484375 20.15625 "/>
<path style=" stroke:none;fill-rule:nonzero;fill:rgb(21.176471%,77.254902%,94.117647%);fill-opacity:1;" d="M 11.796875 6.804688 C 9.964844 6.804688 8.484375 5.316406 8.484375 3.476562 C 8.484375 1.636719 9.964844 0.152344 11.796875 0.152344 C 13.628906 0.152344 15.109375 1.636719 15.109375 3.476562 L 15.109375 6.804688 Z M 11.796875 8.492188 C 13.628906 8.492188 15.109375 9.976562 15.109375 11.816406 C 15.109375 13.65625 13.628906 15.144531 11.796875 15.144531 L 3.488281 15.144531 C 1.65625 15.144531 0.175781 13.65625 0.175781 11.816406 C 0.175781 9.976562 1.65625 8.492188 3.488281 8.492188 Z M 11.796875 8.492188 "/>
<path style=" stroke:none;fill-rule:nonzero;fill:rgb(18.039216%,71.372549%,49.019608%);fill-opacity:1;" d="M 25.074219 11.816406 C 25.074219 9.976562 26.554688 8.492188 28.386719 8.492188 C 30.222656 8.492188 31.703125 9.976562 31.703125 11.816406 C 31.703125 13.65625 30.222656 15.144531 28.386719 15.144531 L 25.074219 15.144531 Z M 23.417969 11.816406 C 23.417969 13.65625 21.9375 15.144531 20.105469 15.144531 C 18.273438 15.144531 16.792969 13.65625 16.792969 11.816406 L 16.792969 3.476562 C 16.792969 1.636719 18.273438 0.152344 20.105469 0.152344 C 21.9375 0.152344 23.417969 1.636719 23.417969 3.476562 Z M 23.417969 11.816406 "/>
<path style=" stroke:none;fill-rule:nonzero;fill:rgb(92.54902%,69.803922%,18.039216%);fill-opacity:1;" d="M 20.105469 25.144531 C 21.9375 25.144531 23.417969 26.632812 23.417969 28.472656 C 23.417969 30.3125 21.9375 31.796875 20.105469 31.796875 C 18.273438 31.796875 16.792969 30.3125 16.792969 28.472656 L 16.792969 25.144531 Z M 20.105469 23.484375 C 18.273438 23.484375 16.792969 21.996094 16.792969 20.15625 C 16.792969 18.316406 18.273438 16.832031 20.105469 16.832031 L 28.414062 16.832031 C 30.246094 16.832031 31.726562 18.316406 31.726562 20.15625 C 31.726562 21.996094 30.246094 23.484375 28.414062 23.484375 Z M 20.105469 23.484375 "/>
</g>
</svg>
