<?xml version="1.0" encoding="UTF-8"?>
<svg xmlns="http://www.w3.org/2000/svg" xmlns:xlink="http://www.w3.org/1999/xlink" width="119px" height="20px" viewBox="0 0 139 42" version="1.1">
<g id="surface1">
<path style=" stroke:none;fill-rule:nonzero;fill:rgb(11.764706%,84.313725%,37.647059%);fill-opacity:1;" d="M 20.886719 0.0703125 C 9.386719 0.0703125 0.0625 9.441406 0.0625 21.003906 C 0.0625 32.566406 9.386719 41.941406 20.886719 41.941406 C 32.386719 41.941406 41.710938 32.566406 41.710938 21.003906 C 41.710938 9.441406 32.386719 0.0703125 20.886719 0.0703125 Z M 30.4375 30.265625 C 30.0625 30.878906 29.261719 31.074219 28.652344 30.695312 C 23.761719 27.695312 17.605469 27.015625 10.359375 28.679688 C 9.660156 28.839844 8.964844 28.398438 8.804688 27.695312 C 8.644531 26.996094 9.082031 26.292969 9.78125 26.132812 C 17.710938 24.3125 24.515625 25.097656 30.003906 28.46875 C 30.617188 28.847656 30.8125 29.648438 30.4375 30.265625 Z M 32.984375 24.5625 C 32.515625 25.332031 31.515625 25.574219 30.75 25.101562 C 25.152344 21.644531 16.621094 20.640625 10 22.660156 C 9.144531 22.921875 8.234375 22.4375 7.976562 21.574219 C 7.71875 20.710938 8.199219 19.800781 9.058594 19.539062 C 16.621094 17.230469 26.023438 18.347656 32.449219 22.320312 C 33.214844 22.792969 33.453125 23.796875 32.984375 24.5625 Z M 33.203125 18.628906 C 26.492188 14.621094 15.417969 14.25 9.011719 16.207031 C 7.984375 16.519531 6.894531 15.9375 6.582031 14.902344 C 6.269531 13.867188 6.851562 12.773438 7.882812 12.460938 C 15.238281 10.214844 27.464844 10.648438 35.191406 15.257812 C 36.117188 15.8125 36.421875 17.015625 35.871094 17.941406 C 35.324219 18.875 34.125 19.179688 33.203125 18.628906 Z M 56.714844 19.394531 C 53.121094 18.535156 52.480469 17.929688 52.480469 16.65625 C 52.480469 15.457031 53.605469 14.648438 55.277344 14.648438 C 56.902344 14.648438 58.507812 15.261719 60.191406 16.527344 C 60.242188 16.5625 60.308594 16.578125 60.371094 16.570312 C 60.433594 16.558594 60.488281 16.523438 60.527344 16.472656 L 62.28125 13.984375 C 62.355469 13.882812 62.332031 13.742188 62.238281 13.664062 C 60.230469 12.042969 57.972656 11.257812 55.332031 11.257812 C 51.449219 11.257812 48.738281 13.601562 48.738281 16.949219 C 48.738281 20.542969 51.078125 21.816406 55.121094 22.800781 C 58.558594 23.597656 59.140625 24.265625 59.140625 25.457031 C 59.140625 26.777344 57.96875 27.601562 56.078125 27.601562 C 53.980469 27.601562 52.265625 26.890625 50.351562 25.222656 C 50.304688 25.183594 50.238281 25.164062 50.179688 25.167969 C 50.113281 25.171875 50.058594 25.203125 50.019531 25.25 L 48.046875 27.605469 C 47.964844 27.703125 47.976562 27.847656 48.070312 27.933594 C 50.296875 29.933594 53.039062 30.988281 55.996094 30.988281 C 60.179688 30.988281 62.882812 28.691406 62.882812 25.132812 C 62.890625 22.132812 61.101562 20.46875 56.722656 19.398438 Z M 72.347656 15.832031 C 70.535156 15.832031 69.046875 16.546875 67.820312 18.019531 L 67.820312 16.363281 C 67.820312 16.234375 67.714844 16.125 67.585938 16.125 L 64.363281 16.125 C 64.234375 16.125 64.132812 16.234375 64.132812 16.363281 L 64.132812 34.765625 C 64.132812 34.894531 64.234375 35 64.363281 35 L 67.585938 35 C 67.714844 35 67.820312 34.894531 67.820312 34.765625 L 67.820312 28.957031 C 69.046875 30.339844 70.535156 31.015625 72.347656 31.015625 C 75.714844 31.015625 79.128906 28.410156 79.128906 23.425781 C 79.132812 18.4375 75.722656 15.832031 72.351562 15.832031 Z M 75.382812 23.425781 C 75.382812 25.960938 73.828125 27.734375 71.601562 27.734375 C 69.402344 27.734375 67.738281 25.882812 67.738281 23.425781 C 67.738281 20.96875 69.402344 19.113281 71.601562 19.113281 C 73.792969 19.113281 75.382812 20.925781 75.382812 23.425781 Z M 87.867188 15.832031 C 83.53125 15.832031 80.128906 19.191406 80.128906 23.480469 C 80.128906 27.722656 83.507812 31.042969 87.816406 31.042969 C 92.171875 31.042969 95.578125 27.695312 95.578125 23.425781 C 95.578125 19.167969 92.191406 15.832031 87.867188 15.832031 Z M 87.867188 27.757812 C 85.5625 27.757812 83.820312 25.894531 83.820312 23.421875 C 83.820312 20.941406 85.5 19.140625 87.816406 19.140625 C 90.136719 19.140625 91.890625 21.003906 91.890625 23.476562 C 91.890625 25.960938 90.199219 27.757812 87.867188 27.757812 Z M 104.84375 16.125 L 101.300781 16.125 L 101.300781 12.484375 C 101.300781 12.355469 101.195312 12.25 101.066406 12.25 L 97.847656 12.25 C 97.71875 12.25 97.609375 12.355469 97.609375 12.484375 L 97.609375 16.125 L 96.0625 16.125 C 95.933594 16.125 95.832031 16.234375 95.832031 16.363281 L 95.832031 19.144531 C 95.832031 19.277344 95.933594 19.382812 96.0625 19.382812 L 97.609375 19.382812 L 97.609375 26.582031 C 97.609375 29.488281 99.050781 30.964844 101.894531 30.964844 C 103.046875 30.964844 104.003906 30.722656 104.90625 30.210938 C 104.980469 30.167969 105.027344 30.089844 105.027344 30.003906 L 105.027344 27.355469 C 105.027344 27.273438 104.984375 27.195312 104.914062 27.152344 C 104.84375 27.109375 104.757812 27.105469 104.683594 27.144531 C 104.066406 27.457031 103.464844 27.601562 102.796875 27.601562 C 101.761719 27.601562 101.300781 27.128906 101.300781 26.074219 L 101.300781 19.382812 L 104.84375 19.382812 C 104.972656 19.382812 105.078125 19.277344 105.078125 19.148438 L 105.078125 16.367188 C 105.082031 16.234375 104.980469 16.128906 104.847656 16.128906 Z M 117.1875 16.140625 L 117.1875 15.695312 C 117.1875 14.378906 117.691406 13.792969 118.8125 13.792969 C 119.484375 13.792969 120.023438 13.925781 120.628906 14.128906 C 120.703125 14.152344 120.78125 14.140625 120.839844 14.09375 C 120.902344 14.050781 120.9375 13.976562 120.9375 13.902344 L 120.9375 11.175781 C 120.9375 11.070312 120.871094 10.976562 120.769531 10.949219 C 120.132812 10.757812 119.320312 10.5625 118.09375 10.5625 C 115.125 10.5625 113.550781 12.246094 113.550781 15.429688 L 113.550781 16.113281 L 112.003906 16.113281 C 111.875 16.113281 111.765625 16.21875 111.765625 16.351562 L 111.765625 19.144531 C 111.765625 19.277344 111.875 19.382812 112.003906 19.382812 L 113.550781 19.382812 L 113.550781 30.484375 C 113.550781 30.617188 113.65625 30.722656 113.785156 30.722656 L 117.003906 30.722656 C 117.136719 30.722656 117.238281 30.617188 117.238281 30.484375 L 117.238281 19.382812 L 120.246094 19.382812 L 124.851562 30.484375 C 124.328125 31.648438 123.8125 31.882812 123.113281 31.882812 C 122.546875 31.882812 121.945312 31.710938 121.335938 31.375 C 121.28125 31.34375 121.210938 31.339844 121.152344 31.355469 C 121.089844 31.378906 121.035156 31.425781 121.011719 31.484375 L 119.921875 33.890625 C 119.867188 34.007812 119.914062 34.140625 120.023438 34.199219 C 121.160156 34.820312 122.1875 35.085938 123.457031 35.085938 C 125.835938 35.085938 127.152344 33.96875 128.308594 30.972656 L 133.890625 16.464844 C 133.921875 16.390625 133.914062 16.308594 133.867188 16.246094 C 133.824219 16.179688 133.753906 16.140625 133.675781 16.140625 L 130.324219 16.140625 C 130.222656 16.140625 130.132812 16.207031 130.101562 16.300781 L 126.667969 26.160156 L 122.90625 16.292969 C 122.871094 16.203125 122.785156 16.140625 122.6875 16.140625 Z M 110.03125 16.125 L 106.8125 16.125 C 106.683594 16.125 106.574219 16.234375 106.574219 16.363281 L 106.574219 30.484375 C 106.574219 30.617188 106.683594 30.722656 106.8125 30.722656 L 110.03125 30.722656 C 110.160156 30.722656 110.265625 30.617188 110.265625 30.484375 L 110.265625 16.363281 C 110.265625 16.234375 110.164062 16.128906 110.03125 16.128906 Z M 108.441406 9.695312 C 107.164062 9.695312 106.128906 10.734375 106.128906 12.015625 C 106.128906 13.300781 107.164062 14.339844 108.441406 14.339844 C 109.714844 14.339844 110.746094 13.300781 110.746094 12.015625 C 110.746094 10.734375 109.714844 9.695312 108.441406 9.695312 Z M 136.644531 20.667969 C 135.371094 20.667969 134.378906 19.636719 134.378906 18.390625 C 134.378906 17.140625 135.382812 16.097656 136.65625 16.097656 C 137.929688 16.097656 138.921875 17.128906 138.921875 18.375 C 138.921875 19.625 137.914062 20.667969 136.644531 20.667969 Z M 136.65625 16.324219 C 135.492188 16.324219 134.617188 17.253906 134.617188 18.390625 C 134.617188 19.523438 135.488281 20.4375 136.644531 20.4375 C 137.804688 20.4375 138.683594 19.511719 138.683594 18.375 C 138.683594 17.242188 137.808594 16.324219 136.65625 16.324219 Z M 137.15625 18.609375 L 137.800781 19.511719 L 137.257812 19.511719 L 136.679688 18.683594 L 136.183594 18.683594 L 136.183594 19.511719 L 135.734375 19.511719 L 135.734375 17.121094 L 136.792969 17.121094 C 137.347656 17.121094 137.710938 17.40625 137.710938 17.882812 C 137.710938 18.277344 137.484375 18.515625 137.160156 18.609375 Z M 136.773438 17.53125 L 136.183594 17.53125 L 136.183594 18.289062 L 136.773438 18.289062 C 137.066406 18.289062 137.246094 18.144531 137.246094 17.910156 C 137.246094 17.664062 137.066406 17.53125 136.773438 17.53125 Z M 136.773438 17.53125 "/>
</g>
</svg>
