<?xml version="1.0" encoding="UTF-8"?>
<svg xmlns="http://www.w3.org/2000/svg" xmlns:xlink="http://www.w3.org/1999/xlink" width="119px" height="20px" viewBox="0 0 29 5" version="1.1">
<defs>
<clipPath id="clip1">
  <path d="M 15 1 L 18 1 L 18 4.96875 L 15 4.96875 Z M 15 1 "/>
</clipPath>
<clipPath id="clip2">
  <path d="M 0.0625 0 L 3 0 L 3 4 L 0.0625 4 Z M 0.0625 0 "/>
</clipPath>
<clipPath id="clip3">
  <path d="M 24 1 L 28.847656 1 L 28.847656 4 L 24 4 Z M 24 1 "/>
</clipPath>
</defs>
<g id="surface1">
<path style=" stroke:none;fill-rule:nonzero;fill:rgb(15.294118%,23.137255%,49.019608%);fill-opacity:1;" d="M 11.351562 0.511719 C 11.351562 0.265625 11.546875 0.0625 11.785156 0.0625 C 12.027344 0.0625 12.222656 0.265625 12.222656 0.511719 C 12.222656 0.761719 12.027344 0.960938 11.785156 0.960938 C 11.546875 0.960938 11.351562 0.761719 11.351562 0.511719 "/>
<path style=" stroke:none;fill-rule:nonzero;fill:rgb(28.627451%,62.352941%,86.666667%);fill-opacity:1;" d="M 18.25 3.503906 C 18.25 3.257812 18.445312 3.054688 18.6875 3.054688 C 18.929688 3.054688 19.125 3.257812 19.125 3.503906 C 19.125 3.753906 18.929688 3.953125 18.6875 3.953125 C 18.445312 3.953125 18.25 3.753906 18.25 3.503906 "/>
<path style=" stroke:none;fill-rule:nonzero;fill:rgb(15.294118%,23.137255%,49.019608%);fill-opacity:1;" d="M 4.171875 3.308594 C 3.792969 3.308594 3.53125 3.003906 3.53125 2.566406 C 3.53125 2.125 3.792969 1.820312 4.171875 1.820312 C 4.550781 1.820312 4.8125 2.125 4.8125 2.566406 C 4.8125 3.011719 4.554688 3.308594 4.171875 3.308594 Z M 4.171875 1.164062 C 3.375 1.164062 2.796875 1.753906 2.796875 2.566406 C 2.796875 3.375 3.375 3.964844 4.171875 3.964844 C 4.972656 3.964844 5.550781 3.375 5.550781 2.566406 C 5.550781 1.753906 4.972656 1.164062 4.171875 1.164062 "/>
<path style=" stroke:none;fill-rule:nonzero;fill:rgb(15.294118%,23.137255%,49.019608%);fill-opacity:1;" d="M 10.503906 2.636719 C 10.472656 2.574219 10.4375 2.523438 10.398438 2.484375 L 10.375 2.457031 L 10.398438 2.433594 C 10.4375 2.394531 10.472656 2.347656 10.507812 2.292969 L 11.214844 1.21875 L 10.359375 1.21875 L 9.832031 2.058594 C 9.800781 2.105469 9.742188 2.125 9.648438 2.125 L 9.53125 2.125 L 9.53125 0.539062 C 9.53125 0.222656 9.335938 0.179688 9.128906 0.179688 L 8.773438 0.179688 L 8.773438 3.925781 L 9.53125 3.925781 L 9.53125 2.800781 L 9.601562 2.800781 C 9.6875 2.800781 9.746094 2.8125 9.773438 2.859375 L 10.191406 3.667969 C 10.304688 3.886719 10.421875 3.925781 10.640625 3.925781 L 11.222656 3.925781 L 10.789062 3.191406 L 10.503906 2.636719 "/>
<path style=" stroke:none;fill-rule:nonzero;fill:rgb(15.294118%,23.137255%,49.019608%);fill-opacity:1;" d="M 14.175781 1.160156 C 13.789062 1.160156 13.546875 1.332031 13.40625 1.480469 L 13.363281 1.53125 L 13.34375 1.464844 C 13.304688 1.304688 13.167969 1.21875 12.964844 1.21875 L 12.625 1.21875 L 12.625 3.921875 L 13.378906 3.921875 L 13.378906 2.675781 C 13.378906 2.554688 13.394531 2.449219 13.425781 2.351562 C 13.507812 2.058594 13.742188 1.878906 14.035156 1.878906 C 14.269531 1.878906 14.359375 2.007812 14.359375 2.335938 L 14.359375 3.511719 C 14.359375 3.792969 14.484375 3.921875 14.757812 3.921875 L 15.117188 3.921875 L 15.117188 2.203125 C 15.117188 1.519531 14.789062 1.160156 14.175781 1.160156 "/>
<path style=" stroke:none;fill-rule:nonzero;fill:rgb(15.294118%,23.137255%,49.019608%);fill-opacity:1;" d="M 11.796875 1.21875 L 11.441406 1.21875 L 11.441406 3.921875 L 11.824219 3.921875 C 11.828125 3.921875 11.832031 3.925781 11.835938 3.925781 L 12.011719 3.921875 L 12.191406 3.921875 L 12.191406 1.628906 C 12.191406 1.355469 12.0625 1.21875 11.796875 1.21875 "/>
<path style=" stroke:none;fill-rule:nonzero;fill:rgb(15.294118%,23.137255%,49.019608%);fill-opacity:1;" d="M 7.121094 3.308594 C 6.746094 3.308594 6.484375 3.003906 6.484375 2.566406 C 6.484375 2.125 6.746094 1.820312 7.121094 1.820312 C 7.5 1.820312 7.765625 2.125 7.765625 2.566406 C 7.765625 3.011719 7.507812 3.308594 7.121094 3.308594 Z M 7.121094 1.164062 C 6.324219 1.164062 5.746094 1.753906 5.746094 2.566406 C 5.746094 3.375 6.324219 3.964844 7.121094 3.964844 C 7.921875 3.964844 8.503906 3.375 8.503906 2.566406 C 8.503906 1.753906 7.921875 1.164062 7.121094 1.164062 "/>
<path style=" stroke:none;fill-rule:nonzero;fill:rgb(28.627451%,62.352941%,86.666667%);fill-opacity:1;" d="M 23.230469 3.308594 C 22.851562 3.308594 22.589844 3.003906 22.589844 2.566406 C 22.589844 2.125 22.851562 1.820312 23.230469 1.820312 C 23.605469 1.820312 23.871094 2.125 23.871094 2.566406 C 23.871094 3.011719 23.613281 3.308594 23.230469 3.308594 Z M 23.230469 1.164062 C 22.429688 1.164062 21.851562 1.753906 21.851562 2.566406 C 21.851562 3.375 22.429688 3.964844 23.230469 3.964844 C 24.027344 3.964844 24.609375 3.375 24.609375 2.566406 C 24.609375 1.753906 24.027344 1.164062 23.230469 1.164062 "/>
<g clip-path="url(#clip1)" clip-rule="nonzero">
<path style=" stroke:none;fill-rule:nonzero;fill:rgb(15.294118%,23.137255%,49.019608%);fill-opacity:1;" d="M 16.699219 3.191406 C 16.289062 3.191406 16.144531 2.824219 16.144531 2.480469 C 16.144531 2.328125 16.179688 1.832031 16.660156 1.832031 C 16.898438 1.832031 17.21875 1.902344 17.21875 2.503906 C 17.21875 3.074219 16.9375 3.191406 16.699219 3.191406 Z M 17.605469 1.210938 C 17.464844 1.210938 17.355469 1.269531 17.300781 1.378906 L 17.277344 1.417969 L 17.246094 1.386719 C 17.125 1.28125 16.90625 1.152344 16.550781 1.152344 C 15.851562 1.152344 15.375 1.695312 15.375 2.5 C 15.375 3.304688 15.867188 3.867188 16.566406 3.867188 C 16.804688 3.867188 16.996094 3.808594 17.144531 3.691406 L 17.203125 3.648438 L 17.203125 3.722656 C 17.203125 4.085938 16.976562 4.285156 16.5625 4.285156 C 16.363281 4.285156 16.179688 4.234375 16.058594 4.1875 C 15.898438 4.140625 15.804688 4.179688 15.738281 4.34375 L 15.679688 4.496094 L 15.59375 4.714844 L 15.648438 4.746094 C 15.910156 4.890625 16.253906 4.972656 16.566406 4.972656 C 17.207031 4.972656 17.953125 4.636719 17.953125 3.691406 L 17.957031 1.210938 L 17.605469 1.210938 "/>
</g>
<g clip-path="url(#clip2)" clip-rule="nonzero">
<path style=" stroke:none;fill-rule:nonzero;fill:rgb(15.294118%,23.137255%,49.019608%);fill-opacity:1;" d="M 1.371094 3.28125 L 0.761719 3.277344 L 0.761719 2.527344 C 0.761719 2.367188 0.820312 2.285156 0.957031 2.265625 L 1.371094 2.265625 C 1.671875 2.265625 1.863281 2.457031 1.863281 2.769531 C 1.863281 3.089844 1.675781 3.277344 1.371094 3.28125 Z M 0.761719 1.253906 L 0.761719 1.058594 C 0.761719 0.886719 0.832031 0.804688 0.988281 0.792969 L 1.300781 0.792969 C 1.570312 0.792969 1.730469 0.957031 1.730469 1.234375 C 1.730469 1.441406 1.621094 1.6875 1.3125 1.6875 L 0.761719 1.6875 Z M 2.152344 2.003906 L 2.042969 1.941406 L 2.140625 1.855469 C 2.25 1.757812 2.441406 1.535156 2.441406 1.148438 C 2.441406 0.5625 1.996094 0.179688 1.304688 0.179688 L 0.429688 0.179688 C 0.226562 0.1875 0.0625 0.359375 0.0625 0.570312 L 0.0625 3.910156 L 1.320312 3.910156 C 2.085938 3.910156 2.582031 3.484375 2.582031 2.820312 C 2.582031 2.464844 2.421875 2.160156 2.152344 2.003906 "/>
</g>
<g clip-path="url(#clip3)" clip-rule="nonzero">
<path style=" stroke:none;fill-rule:nonzero;fill:rgb(28.627451%,62.352941%,86.666667%);fill-opacity:1;" d="M 27.964844 1.167969 C 27.65625 1.167969 27.351562 1.316406 27.160156 1.566406 L 27.105469 1.640625 L 27.0625 1.558594 C 26.921875 1.300781 26.683594 1.167969 26.351562 1.167969 C 26 1.167969 25.765625 1.367188 25.660156 1.484375 L 25.585938 1.566406 L 25.558594 1.460938 C 25.519531 1.3125 25.390625 1.230469 25.195312 1.230469 L 24.878906 1.230469 L 24.875 3.921875 L 25.59375 3.921875 L 25.59375 2.734375 C 25.59375 2.628906 25.605469 2.527344 25.628906 2.417969 C 25.699219 2.132812 25.886719 1.820312 26.203125 1.851562 C 26.398438 1.871094 26.492188 2.027344 26.492188 2.324219 L 26.492188 3.921875 L 27.214844 3.921875 L 27.214844 2.734375 C 27.214844 2.601562 27.226562 2.503906 27.257812 2.40625 C 27.316406 2.132812 27.511719 1.851562 27.816406 1.851562 C 28.039062 1.851562 28.121094 1.980469 28.121094 2.324219 L 28.121094 3.527344 C 28.121094 3.800781 28.238281 3.921875 28.503906 3.921875 L 28.839844 3.921875 L 28.839844 2.203125 C 28.839844 1.515625 28.546875 1.167969 27.964844 1.167969 "/>
</g>
<path style=" stroke:none;fill-rule:nonzero;fill:rgb(28.627451%,62.352941%,86.666667%);fill-opacity:1;" d="M 21.4375 2.988281 C 21.433594 2.988281 21.125 3.324219 20.71875 3.324219 C 20.347656 3.324219 19.976562 3.089844 19.976562 2.570312 C 19.976562 2.121094 20.265625 1.808594 20.679688 1.808594 C 20.816406 1.808594 20.96875 1.855469 20.992188 1.941406 L 20.996094 1.953125 C 21.050781 2.144531 21.21875 2.152344 21.253906 2.152344 L 21.644531 2.152344 L 21.644531 1.800781 C 21.644531 1.335938 21.070312 1.167969 20.679688 1.167969 C 19.851562 1.167969 19.25 1.761719 19.25 2.574219 C 19.25 3.390625 19.84375 3.984375 20.664062 3.984375 C 21.378906 3.984375 21.765625 3.503906 21.769531 3.5 L 21.789062 3.472656 L 21.476562 2.941406 L 21.4375 2.988281 "/>
</g>
</svg>
