<?xml version="1.0" encoding="UTF-8"?>
<svg xmlns="http://www.w3.org/2000/svg" xmlns:xlink="http://www.w3.org/1999/xlink" width="119px" height="20px" viewBox="0 0 625 363" version="1.1">
<g id="surface1">
<path style=" stroke:none;fill-rule:nonzero;fill:rgb(88.627451%,10.588235%,30.196078%);fill-opacity:1;" d="M 447.277344 59.703125 L 420.816406 59.703125 L 420.816406 111.679688 C 420.816406 128.621094 438.894531 143.09375 461.25 143.09375 C 483.601562 143.09375 503.160156 128.457031 503.160156 111.679688 L 503.160156 59.703125 L 476.699219 59.703125 L 476.699219 106.582031 C 476.699219 114.3125 470.125 120.5625 462.070312 120.5625 C 453.851562 120.5625 447.277344 114.3125 447.277344 106.417969 Z M 27.492188 31.085938 L 27.492188 138.984375 L 0.046875 138.984375 L 0.046875 8.882812 L 49.519531 8.882812 C 71.050781 8.882812 88.636719 26.316406 88.636719 47.535156 C 88.636719 65.625 75.980469 80.757812 58.886719 84.707031 L 97.019531 138.984375 L 64.3125 138.984375 L 36.863281 96.382812 L 36.863281 65.296875 L 43.273438 65.296875 C 53.464844 65.296875 61.679688 57.730469 61.679688 48.355469 C 61.679688 38.980469 53.957031 31.085938 43.765625 31.085938 Z M 280.121094 138.984375 L 280.121094 2.632812 L 254.152344 2.632812 L 254.152344 66.941406 C 247.246094 60.199219 238.535156 56.414062 228.511719 56.414062 C 207.144531 56.414062 189.71875 75.332031 189.71875 98.851562 C 189.71875 122.207031 207.144531 141.285156 228.511719 141.285156 C 238.699219 141.285156 248.234375 137.339844 254.152344 130.101562 L 254.152344 138.984375 Z M 235.90625 119.082031 C 225.386719 119.082031 216.839844 109.707031 216.839844 98.191406 C 216.839844 86.679688 225.386719 77.304688 235.90625 77.304688 C 246.425781 77.304688 254.972656 86.679688 254.972656 98.191406 C 254.808594 109.707031 246.261719 119.082031 235.90625 119.082031 M 389.257812 68.257812 C 396.324219 61.679688 400.761719 52.796875 400.761719 43.09375 C 400.761719 34.210938 397.3125 26.152344 391.394531 19.738281 C 385.148438 12.992188 374.300781 8.882812 359.507812 8.882812 L 315.292969 8.882812 L 315.292969 138.984375 L 372.492188 138.984375 C 394.351562 138.652344 412.105469 122.042969 412.105469 101.648438 C 411.941406 86.84375 406.679688 76.316406 389.257812 68.257812 M 367.234375 116.449219 L 342.414062 116.449219 L 342.414062 32.238281 L 359.835938 32.238281 C 367.398438 32.238281 373.808594 37.992188 373.808594 45.722656 C 373.808594 53.453125 367.398438 59.703125 359.835938 59.703125 L 350.632812 59.703125 L 350.632812 83.226562 L 367.5625 83.226562 C 376.765625 83.226562 383.667969 90.792969 383.667969 100 C 383.339844 109.210938 377.257812 115.957031 367.234375 116.449219 "/>
<path style=" stroke:none;fill-rule:nonzero;fill:rgb(88.627451%,10.588235%,30.196078%);fill-opacity:1;" d="M 120.03125 89.144531 C 120.03125 80.429688 127.097656 73.355469 135.808594 73.355469 C 144.519531 73.355469 151.589844 80.429688 151.589844 89.144531 Z M 177.230469 103.949219 C 177.394531 102.140625 177.558594 100.332031 177.558594 98.523438 C 177.886719 70.394531 159.476562 55.101562 135.808594 55.101562 C 112.140625 55.101562 92.910156 74.507812 92.910156 98.523438 C 92.910156 122.535156 112.140625 141.945312 135.808594 141.945312 C 153.890625 141.945312 168.023438 133.71875 175.257812 120.890625 L 154.21875 111.1875 C 151.589844 116.941406 145.34375 121.054688 137.945312 121.054688 C 128.25 121.054688 120.195312 113.652344 120.195312 103.949219 Z M 515.324219 2.632812 L 541.292969 2.632812 L 541.292969 138.984375 L 515.324219 138.984375 Z M 559.539062 2.632812 L 585.507812 2.632812 L 585.507812 138.984375 L 559.539062 138.984375 Z M 559.539062 2.632812 "/>
<path style=" stroke:none;fill-rule:nonzero;fill:rgb(100%,82.745098%,0%);fill-opacity:1;" d="M 233.113281 229.117188 C 233.113281 193.917969 261.546875 165.464844 296.722656 165.464844 C 331.894531 165.464844 360.328125 193.917969 360.328125 229.117188 C 360.328125 264.3125 331.894531 292.769531 296.722656 292.769531 C 261.546875 292.769531 233.113281 264.148438 233.113281 229.117188 "/>
<path style=" stroke:none;fill-rule:evenodd;fill:rgb(100%,82.745098%,0%);fill-opacity:1;" d="M 245.605469 191.285156 C 246.589844 191.78125 247.578125 192.273438 248.726562 192.929688 C 253.492188 196.21875 256.617188 199.015625 263.847656 205.101562 C 265.984375 207.242188 268.449219 210.695312 270.257812 212.832031 C 274.203125 217.765625 276.996094 221.222656 277.492188 225.332031 C 278.640625 233.558594 279.792969 238.164062 282.914062 246.550781 C 283.242188 247.371094 284.558594 248.523438 285.378906 249.511719 C 287.351562 251.976562 288.175781 255.925781 291.789062 258.0625 C 293.761719 259.214844 294.089844 259.378906 294.75 259.875 C 295.734375 260.695312 294.089844 263.65625 288.996094 263 C 291.625 264.3125 291.296875 267.273438 287.515625 267.4375 C 280.121094 267.769531 275.519531 263.492188 274.53125 262.339844 C 274.039062 261.847656 272.558594 263.820312 269.929688 264.808594 C 267.300781 266.125 263.683594 264.808594 260.890625 265.300781 C 258.261719 265.792969 254.808594 267.4375 252.015625 267.605469 C 247.082031 267.769531 246.425781 264.3125 246.425781 261.351562 L 246.425781 260.039062 C 245.933594 261.847656 244.125 264.972656 244.125 264.972656 C 243.46875 266.453125 242.480469 268.261719 240.671875 268.917969 L 235.414062 269.578125 C 231.304688 271.386719 227.195312 272.703125 222.921875 274.183594 C 220.457031 274.675781 217.664062 274.183594 215.855469 272.703125 C 214.375 271.550781 213.554688 270.070312 212.730469 268.589844 C 211.910156 268.261719 210.757812 268.589844 209.773438 268.261719 C 208.949219 268.097656 208.457031 267.4375 207.964844 266.945312 L 204.347656 260.859375 C 204.019531 260.039062 204.019531 258.886719 204.347656 258.0625 C 205.007812 256.75 206.484375 256.089844 207.964844 256.089844 C 210.59375 255.925781 213.554688 255.101562 216.183594 256.089844 C 217.332031 254.773438 219.140625 254.9375 220.785156 254.609375 C 220.128906 253.621094 219.140625 253.128906 218.320312 252.308594 C 213.554688 253.457031 208.292969 252.636719 203.691406 251.8125 C 199.417969 250.828125 195.800781 253.292969 191.527344 252.636719 L 190.214844 255.433594 C 188.242188 257.570312 188.078125 261.1875 185.117188 262.667969 C 182.980469 263.164062 181.339844 264.644531 179.53125 265.628906 C 176.242188 267.4375 171.804688 266.617188 168.1875 265.957031 C 166.710938 265.792969 165.722656 265.957031 164.410156 266.453125 C 163.257812 267.273438 161.941406 268.589844 160.628906 269.578125 C 158.492188 270.398438 156.683594 272.207031 154.382812 272.375 C 153.066406 272.375 151.753906 271.550781 150.4375 271.878906 C 148.792969 273.6875 147.972656 276.648438 145.34375 277.472656 C 142.710938 278.292969 139.425781 277.636719 136.796875 276.980469 C 135.972656 277.308594 135.480469 277.964844 134.496094 277.800781 C 132.6875 277.308594 130.878906 276.8125 129.234375 275.828125 C 128.578125 275.167969 128.414062 274.347656 128.25 273.6875 C 128.25 272.539062 129.234375 271.550781 129.726562 270.5625 C 129.890625 269.414062 129.890625 267.769531 130.386719 266.617188 C 131.207031 264.808594 133.015625 263.65625 134.824219 262.832031 C 134.988281 261.519531 135.808594 260.367188 136.960938 259.707031 C 139.097656 258.558594 141.398438 255.925781 144.191406 257.40625 L 147.152344 259.875 C 149.78125 258.722656 149.121094 256.089844 150.4375 253.953125 C 151.09375 252.472656 151.917969 250.828125 153.5625 250.828125 C 154.710938 250.664062 156.027344 250.992188 157.175781 250.828125 C 158.820312 250.332031 160.628906 249.675781 161.777344 248.359375 L 161.613281 247.371094 C 159.972656 244.246094 159.476562 240.464844 159.3125 236.683594 C 156.355469 237.011719 153.230469 237.503906 150.109375 236.847656 C 145.507812 236.1875 141.070312 232.570312 139.261719 227.964844 C 137.289062 223.523438 138.109375 217.273438 141.234375 213.492188 C 143.699219 210.53125 146.492188 207.898438 149.453125 205.597656 C 148.464844 205.265625 147.316406 205.429688 146.328125 205.101562 C 142.054688 204.445312 137.78125 200.660156 136.796875 196.386719 C 136.136719 193.589844 136.796875 190.957031 138.109375 188.65625 C 138.605469 188.160156 139.097656 187.667969 139.917969 187.996094 C 142.054688 188.820312 142.710938 189.96875 144.683594 190.957031 L 145.835938 191.617188 C 151.257812 193.425781 158.492188 193.425781 160.628906 200.167969 C 161.941406 205.429688 158.65625 209.378906 154.875 212.339844 C 151.917969 214.476562 148.957031 217.109375 147.480469 220.234375 C 146.820312 222.535156 147.152344 224.839844 149.121094 226.484375 C 151.09375 228.457031 154.546875 228.457031 157.011719 227.472656 C 161.613281 225.496094 165.886719 222.535156 169.996094 219.410156 C 173.941406 216.453125 178.707031 215.300781 183.804688 215.136719 C 186.105469 214.640625 188.078125 213.65625 189.886719 212.175781 C 193.007812 209.214844 196.296875 206.746094 200.238281 205.761719 C 202.046875 205.429688 203.855469 205.265625 205.664062 205.101562 C 207.144531 204.445312 208.128906 202.636719 209.28125 201.8125 C 214.703125 197.042969 221.9375 197.207031 227.6875 193.425781 C 230.976562 190.957031 234.589844 189.3125 238.863281 189.476562 C 240.835938 189.640625 242.644531 189.96875 244.289062 190.628906 Z M 251.027344 247.207031 C 247.410156 247.371094 245.109375 248.195312 242.644531 248.523438 C 242.808594 250.828125 244.125 252.800781 245.933594 255.269531 C 246.917969 251.484375 250.042969 250.003906 251.027344 247.207031 M 343.566406 248.03125 C 345.207031 250.496094 346.195312 252.964844 347.671875 255.597656 C 349.152344 252.800781 350.46875 250.167969 351.78125 248.523438 C 351.617188 248.359375 347.34375 248.851562 343.566406 248.03125 M 347.015625 260.203125 C 346.851562 260.695312 346.523438 260.859375 345.867188 260.859375 C 346.359375 263.164062 344.714844 267.4375 340.605469 267.605469 C 337.8125 267.769531 333.210938 264.972656 330.578125 264.808594 C 327.785156 264.644531 322.691406 266.78125 319.730469 262.339844 C 315.789062 267.109375 311.183594 268.425781 307.242188 268.261719 C 304.9375 268.261719 302.472656 266.945312 305.925781 263.984375 C 298.363281 266.453125 298.363281 261.351562 299.679688 260.367188 C 300.5 259.707031 301.488281 259.214844 304.28125 256.417969 C 314.800781 245.398438 310.855469 226.320312 322.363281 213.65625 C 326.800781 208.722656 330.414062 205.925781 339.457031 199.511719 C 342.578125 197.371094 345.703125 194.246094 348.660156 192.109375 L 348.824219 192.4375 L 348.824219 192.273438 C 350.632812 190.957031 352.277344 189.640625 354.25 189.148438 C 358.355469 188.65625 362.136719 189.96875 365.261719 192.109375 C 366.902344 193.261719 368.21875 194.574219 369.535156 196.21875 C 370.519531 197.207031 372 197.207031 373.316406 197.699219 C 377.09375 198.359375 380.382812 199.839844 383.503906 201.8125 C 385.640625 203.128906 387.449219 205.429688 390.078125 205.761719 C 393.203125 206.253906 395.996094 207.242188 398.789062 208.886719 C 402.078125 211.023438 405.035156 213.65625 408.980469 214.3125 C 416.871094 215.136719 423.445312 219.578125 429.691406 224.015625 C 433.308594 226.15625 437.582031 228.621094 442.019531 227.140625 C 443.332031 226.648438 444.320312 225.496094 444.648438 224.347656 C 444.976562 221.386719 443.167969 219.082031 441.359375 216.945312 C 437.582031 212.503906 431.007812 208.722656 431.828125 202.304688 C 432.976562 197.535156 438.238281 194.742188 442.347656 193.425781 C 444.648438 192.601562 447.441406 192.929688 449.414062 190.957031 C 450.402344 190.300781 450.894531 187.996094 452.539062 188.820312 C 453.851562 189.640625 454.015625 191.285156 454.179688 192.765625 C 454.839844 197.371094 453.851562 201.976562 449.578125 204.609375 C 447.605469 205.925781 445.46875 206.417969 443.167969 206.910156 C 446.621094 209.707031 450.070312 213.160156 452.042969 217.109375 C 453.195312 219.410156 453.851562 221.386719 454.015625 224.015625 C 453.851562 228.953125 450.894531 233.226562 446.621094 235.695312 C 444.15625 237.011719 441.359375 237.503906 438.402344 237.503906 C 437.25 237.503906 436.265625 237.175781 435.28125 237.175781 C 435.773438 239.476562 435.773438 242.601562 435.28125 245.234375 C 435.113281 246.550781 434.292969 248.03125 434.292969 249.675781 C 434.949219 250.496094 435.9375 250.496094 436.757812 250.496094 C 438.894531 250.496094 441.523438 250.332031 442.675781 252.636719 C 443.660156 254.773438 444.15625 257.242188 444.976562 259.378906 C 445.304688 259.707031 445.46875 260.53125 445.964844 260.367188 C 447.441406 259.050781 448.921875 257.242188 451.058594 257.734375 C 453.03125 259.050781 455.003906 260.53125 456.976562 262.011719 C 457.46875 262.503906 457.632812 263.164062 457.796875 263.984375 C 459.441406 264.644531 461.578125 265.792969 462.070312 267.769531 C 462.398438 269.082031 462.234375 270.398438 462.5625 271.550781 C 463.058594 272.867188 464.371094 274.511719 463.386719 276.15625 L 462.726562 276.648438 L 456.480469 278.625 C 455.988281 278.625 455.496094 278.292969 455.003906 277.800781 C 451.714844 277.636719 447.769531 278.625 445.140625 276.320312 C 443.992188 275.332031 443.167969 274.183594 442.347656 272.867188 C 440.375 273.855469 437.582031 274.511719 435.609375 273.195312 C 431.5 270.070312 427.390625 266.945312 421.800781 267.109375 C 419.335938 267.605469 416.378906 268.261719 413.914062 267.273438 C 411.609375 265.628906 408.980469 264.808594 407.171875 262.339844 C 404.542969 259.542969 404.542969 256.253906 403.558594 252.800781 C 399.941406 253.621094 395.996094 253.128906 392.378906 252.964844 C 389.421875 252.800781 386.628906 253.292969 383.832031 253.953125 C 380.382812 254.609375 376.601562 254.9375 372.984375 254.773438 L 371.175781 256.089844 C 372 256.253906 372.820312 256.253906 373.480469 256.914062 L 374.136719 257.570312 C 377.09375 257.898438 380.546875 257.40625 383.339844 258.0625 C 384 258.226562 384.65625 258.886719 384.984375 259.542969 C 385.3125 260.367188 385.3125 261.351562 384.820312 262.011719 C 383.339844 263.984375 382.519531 266.289062 380.546875 267.933594 C 380.054688 268.589844 378.574219 267.769531 378.410156 268.917969 C 377.753906 271.878906 374.957031 274.347656 372.164062 275.003906 C 371.011719 275.167969 369.699219 275.003906 368.710938 274.675781 C 365.261719 273.523438 361.808594 272.539062 358.355469 271.550781 C 357.207031 271.222656 356.21875 270.070312 355.234375 269.414062 C 353.753906 269.414062 351.617188 269.90625 350.632812 268.589844 C 350.140625 268.261719 349.644531 267.109375 349.480469 266.617188 C 348.332031 265.136719 347.507812 262.503906 347.015625 260.203125 "/>
<path style=" stroke:none;fill-rule:evenodd;fill:rgb(88.627451%,10.588235%,30.196078%);fill-opacity:1;" d="M 243.960938 212.011719 C 244.945312 214.476562 244.945312 217.765625 244.289062 220.398438 C 244.125 220.5625 243.960938 220.5625 243.796875 220.398438 C 243.304688 218.097656 242.808594 215.792969 241.988281 213.492188 C 241.496094 212.175781 239.851562 211.023438 240.507812 209.542969 C 240.835938 209.214844 241.496094 209.214844 241.988281 209.378906 C 242.808594 210.203125 243.304688 211.023438 243.960938 212.011719 M 270.257812 235.039062 C 272.066406 237.175781 273.382812 239.476562 272.722656 242.273438 C 272.394531 242.765625 272.558594 243.753906 271.738281 243.917969 C 271.410156 244.082031 271.082031 243.753906 271.082031 243.425781 C 270.917969 241.945312 270.917969 240.300781 270.09375 239.148438 C 269.109375 238.164062 267.957031 236.1875 266.3125 236.1875 C 265.164062 236.515625 264.339844 237.832031 263.683594 238.65625 C 263.683594 238.820312 263.519531 238.820312 263.355469 238.65625 C 262.699219 237.011719 264.011719 235.695312 264.507812 234.378906 C 265.492188 233.390625 265.328125 230.597656 267.464844 231.417969 C 268.945312 232.40625 269.273438 234.050781 270.257812 235.039062 M 266.808594 254.609375 C 266.972656 255.597656 266.972656 257.078125 265.984375 257.734375 C 265 258.0625 263.683594 258.226562 262.535156 258.0625 C 262.203125 257.898438 261.875 257.734375 262.039062 257.40625 C 262.535156 255.925781 264.011719 254.28125 265.65625 253.953125 C 265.984375 253.953125 266.644531 253.953125 266.808594 254.609375 M 146.820312 194.574219 C 150.765625 195.5625 155.039062 195.5625 158 198.6875 C 159.640625 200.660156 159.804688 204.117188 158.492188 206.089844 C 156.191406 210.035156 151.589844 212.011719 148.792969 215.464844 C 146 217.765625 145.015625 221.386719 145.835938 225.003906 C 146.820312 228.128906 149.945312 230.265625 153.066406 230.433594 C 158 230.597656 161.613281 228.128906 165.558594 225.828125 C 169.503906 223.03125 173.121094 219.410156 177.558594 218.261719 C 180.515625 217.273438 183.804688 217.765625 186.761719 216.617188 C 189.886719 215.957031 192.351562 213.328125 194.816406 211.023438 C 197.609375 208.722656 200.898438 207.40625 204.511719 207.570312 C 207.800781 208.0625 209.609375 205.101562 211.910156 203.128906 C 215.691406 199.675781 220.621094 199.347656 225.058594 197.371094 C 228.179688 196.386719 230.648438 194.082031 233.605469 192.601562 C 236.398438 191.449219 240.179688 191.121094 242.972656 192.273438 C 244.78125 193.09375 246.753906 193.917969 248.398438 195.234375 L 261.710938 206.417969 C 261.875 206.910156 262.371094 207.242188 262.699219 207.40625 C 266.476562 212.011719 270.421875 216.453125 273.546875 221.550781 C 274.53125 223.359375 275.023438 225.167969 275.519531 227.140625 C 276.175781 234.707031 278.148438 241.289062 280.613281 247.867188 C 281.269531 248.851562 282.585938 249.675781 283.242188 250.664062 C 285.378906 253.621094 286.695312 257.40625 290.148438 259.378906 L 292.117188 260.367188 C 292.285156 260.53125 292.285156 260.859375 292.117188 261.023438 L 291.789062 261.351562 C 287.679688 262.011719 284.558594 259.542969 282.421875 256.582031 C 281.105469 253.953125 279.296875 251.15625 276.339844 250.003906 C 276.175781 250.003906 276.011719 250.167969 276.011719 250.167969 C 276.339844 251.15625 277.328125 251.8125 277.65625 252.636719 C 278.804688 254.445312 279.792969 256.417969 280.285156 258.394531 C 280.941406 260.53125 283.242188 262.011719 285.050781 263.164062 L 287.679688 264.476562 C 288.011719 264.644531 288.175781 265.136719 287.84375 265.464844 L 287.515625 265.628906 C 283.078125 265.792969 279.132812 264.3125 276.011719 261.023438 C 275.355469 260.203125 274.367188 259.542969 273.21875 259.542969 C 271.246094 261.351562 269.273438 263 266.644531 263.164062 C 263.847656 262.667969 260.890625 262.667969 258.425781 263.65625 C 256.125 264.476562 253.824219 265.464844 251.355469 265.464844 C 250.207031 265.464844 248.890625 264.972656 248.398438 263.820312 C 248.398438 262.339844 247.410156 260.695312 248.234375 259.214844 L 249.878906 256.75 C 249.878906 256.417969 249.714844 256.089844 249.382812 256.089844 C 248.726562 255.925781 247.578125 257.078125 247.246094 255.925781 C 247.410156 253.457031 249.878906 251.8125 251.519531 250.167969 C 251.851562 248.195312 252.671875 246.386719 254.152344 244.742188 C 254.152344 244.578125 253.988281 244.246094 253.65625 244.246094 C 251.519531 244.578125 249.382812 245.070312 247.082031 245.070312 C 245.273438 246.058594 242.972656 246.714844 240.835938 246.058594 C 240.34375 245.726562 240.507812 245.234375 240.671875 244.90625 C 242.972656 241.78125 243.796875 237.832031 243.136719 234.050781 C 242.972656 233.886719 242.972656 233.558594 242.644531 233.558594 C 242.316406 233.558594 242.316406 233.886719 242.152344 234.050781 C 241.660156 237.667969 240.507812 240.464844 238.535156 243.589844 C 237.058594 245.070312 234.757812 245.070312 232.785156 245.5625 C 232.289062 245.726562 231.796875 246.222656 231.796875 246.714844 C 231.796875 248.03125 232.621094 248.851562 233.113281 250.003906 L 237.386719 257.898438 C 237.550781 260.039062 236.5625 262.175781 236.070312 264.148438 C 236.234375 264.476562 236.5625 264.3125 236.894531 264.148438 C 238.371094 262.832031 239.359375 261.023438 240.015625 259.050781 C 240.179688 258.226562 239.851562 257.242188 239.523438 256.582031 L 235.085938 247.703125 C 235.414062 247.207031 236.070312 247.207031 236.5625 247.042969 C 237.550781 247.042969 238.535156 247.539062 239.523438 247.867188 C 240.507812 250.496094 241.660156 253.292969 243.46875 255.597656 C 243.796875 257.078125 244.289062 259.050781 243.304688 260.203125 C 242.316406 262.175781 241.332031 263.820312 240.015625 265.628906 C 238.863281 266.78125 237.222656 266.617188 235.578125 266.78125 L 235.085938 266.78125 C 231.140625 268.917969 227.03125 270.234375 222.757812 271.550781 C 220.949219 272.375 218.8125 271.714844 217.332031 270.5625 C 215.855469 269.414062 215.195312 267.769531 214.210938 266.289062 C 213.058594 264.808594 211.253906 266.125 209.9375 265.300781 C 208.785156 263.492188 207.636719 261.683594 206.648438 259.707031 C 206.648438 259.214844 206.648438 258.722656 207.144531 258.394531 C 208.621094 257.898438 210.265625 257.898438 211.910156 257.734375 C 213.390625 257.570312 215.03125 257.898438 216.019531 258.886719 C 217.992188 261.1875 218.8125 264.3125 221.769531 265.792969 C 224.074219 265.957031 226.042969 265.300781 228.015625 264.3125 C 229.167969 263.65625 230.484375 262.667969 230.484375 261.1875 C 230.316406 258.226562 228.347656 255.925781 225.878906 254.28125 C 223.414062 252.964844 220.785156 251.15625 218.976562 248.851562 C 217.992188 247.539062 217.828125 246.058594 217.332031 244.742188 C 217.167969 244.414062 216.511719 244.414062 216.347656 244.578125 C 215.359375 245.398438 216.183594 246.878906 216.183594 247.867188 C 216.347656 248.523438 216.675781 249.347656 216.347656 249.839844 C 214.867188 250.992188 212.894531 250.332031 211.085938 250.496094 C 207.472656 250.332031 204.019531 248.851562 200.238281 249.183594 C 196.625 249.347656 191.691406 251.8125 189.0625 248.195312 C 187.75 244.742188 188.078125 240.628906 188.734375 237.175781 C 188.734375 236.847656 188.40625 236.515625 188.078125 236.515625 C 187.75 236.351562 187.417969 236.515625 187.253906 236.847656 C 186.269531 240.300781 186.105469 244.082031 185.28125 247.703125 C 183.96875 250.828125 181.667969 254.117188 178.542969 255.761719 C 175.75 257.242188 172.460938 257.734375 169.011719 258.0625 C 162.765625 258.226562 157.011719 259.378906 153.066406 264.808594 C 152.738281 265.300781 152.246094 265.792969 152.410156 266.453125 C 152.574219 266.617188 153.066406 266.78125 153.230469 266.617188 C 157.503906 261.847656 162.929688 259.875 169.175781 260.203125 C 175.09375 260.203125 181.007812 259.214844 184.789062 254.117188 C 185.777344 252.964844 186.433594 251.8125 187.253906 250.496094 C 187.914062 250.496094 188.40625 251.320312 188.898438 251.648438 C 189.0625 253.457031 187.582031 254.609375 186.925781 256.089844 C 186.105469 257.734375 185.28125 259.707031 183.640625 260.695312 C 181.667969 261.1875 180.023438 262.503906 178.214844 263.492188 C 176.40625 264.3125 174.105469 264.644531 171.96875 264.148438 C 169.339844 263.65625 165.722656 263 163.09375 264.148438 C 161.777344 264.972656 160.628906 266.453125 159.3125 267.273438 C 157.503906 268.097656 155.863281 269.578125 153.726562 269.414062 C 152.246094 269.082031 150.4375 268.097656 149.121094 269.414062 C 147.480469 270.894531 147.152344 273.523438 145.015625 274.511719 C 142.546875 275.828125 139.917969 274.511719 137.453125 274.347656 C 137.78125 271.878906 138.109375 269.578125 139.753906 267.769531 C 140.742188 267.605469 141.5625 267.4375 142.382812 266.78125 C 143.371094 265.957031 144.027344 264.808594 144.683594 263.65625 C 146.820312 262.339844 149.289062 261.351562 150.601562 259.050781 C 151.589844 256.914062 151.589844 254.9375 153.230469 252.964844 L 154.054688 252.636719 L 158.492188 252.308594 C 160.300781 251.484375 161.941406 250.664062 163.585938 249.347656 C 164.078125 248.851562 164.246094 248.03125 164.078125 247.207031 C 163.257812 245.070312 162.601562 243.589844 162.109375 241.289062 C 161.613281 238.984375 161.941406 236.683594 161.613281 234.050781 C 161.449219 233.886719 161.285156 233.390625 160.957031 233.390625 C 158 234.050781 155.203125 234.871094 151.917969 234.378906 C 147.480469 233.886719 142.878906 230.925781 141.234375 226.484375 C 139.753906 222.703125 140.082031 217.273438 142.878906 214.148438 C 145.507812 210.859375 148.792969 208.390625 152.082031 205.597656 C 152.574219 205.265625 152.574219 204.609375 152.738281 204.117188 C 152.738281 203.457031 152.082031 202.964844 151.589844 202.636719 C 149.617188 202.140625 147.316406 202.800781 145.34375 201.976562 C 141.890625 200.824219 139.261719 197.535156 138.769531 193.917969 C 138.605469 192.273438 138.933594 190.957031 139.753906 189.640625 C 142.382812 191.945312 144.355469 193.917969 146.820312 194.574219 M 136.960938 268.097656 L 136.960938 268.589844 C 136.136719 270.5625 135.644531 272.867188 134.988281 275.167969 C 133.507812 275.003906 132.195312 274.511719 131.042969 274.019531 C 130.714844 273.6875 131.042969 273.359375 131.042969 273.03125 C 132.523438 271.714844 132.027344 270.070312 132.359375 268.261719 C 132.523438 267.273438 133.507812 266.453125 134.496094 265.957031 C 135.644531 266.125 136.300781 267.273438 136.960938 268.097656 M 144.191406 261.1875 C 143.371094 262.832031 142.21875 264.808594 140.410156 265.792969 C 139.753906 265.957031 138.933594 265.957031 138.273438 265.628906 C 137.945312 265.300781 137.289062 264.972656 137.289062 264.3125 C 137.453125 263.65625 137.125 262.832031 137.78125 262.503906 C 139.097656 261.683594 140.410156 260.859375 141.726562 259.707031 C 142.054688 259.542969 142.710938 259.378906 142.878906 259.707031 C 143.535156 260.203125 144.027344 260.53125 144.191406 261.1875 M 226.539062 260.53125 C 226.703125 261.1875 227.6875 262.011719 227.03125 262.667969 C 225.714844 263.65625 224.238281 264.3125 222.429688 264.148438 C 221.113281 263.164062 221.277344 261.351562 220.128906 260.039062 C 219.800781 259.050781 218.320312 259.050781 218.648438 258.0625 L 219.140625 257.734375 C 220.949219 257.734375 222.757812 257.734375 224.566406 257.40625 C 226.375 257.242188 225.878906 259.378906 226.539062 260.53125 M 330.414062 233.722656 C 331.402344 235.039062 332.222656 236.351562 332.882812 237.996094 C 333.046875 238.328125 332.882812 238.65625 332.714844 238.984375 C 332.550781 239.3125 332.222656 239.640625 331.730469 239.3125 C 330.578125 238.984375 330.746094 237.175781 329.265625 237.339844 C 328.277344 237.339844 327.621094 238.164062 326.800781 238.65625 C 325.320312 239.972656 323.347656 241.289062 323.019531 243.261719 C 322.691406 243.917969 322.855469 245.070312 322.199219 245.398438 C 321.867188 245.5625 321.375 245.234375 321.375 244.90625 C 321.210938 242.273438 322.03125 239.808594 323.839844 237.996094 C 325.648438 236.515625 326.964844 234.378906 328.441406 232.570312 C 329.429688 232.40625 330.085938 233.0625 330.414062 233.722656 M 331.074219 255.597656 C 331.402344 256.253906 332.058594 257.078125 331.566406 257.898438 C 330.910156 258.394531 329.757812 258.0625 328.9375 258.0625 C 327.949219 257.570312 327.621094 256.253906 327.621094 255.101562 C 327.621094 254.773438 327.621094 254.609375 327.949219 254.28125 C 329.101562 254.28125 330.25 254.609375 331.074219 255.597656 M 355.726562 205.265625 C 356.21875 205.925781 355.726562 206.582031 355.398438 207.074219 C 353.097656 209.214844 350.304688 211.515625 348.660156 214.148438 C 348.003906 214.972656 347.507812 215.957031 347.179688 216.945312 C 347.179688 217.109375 347.015625 217.109375 346.851562 217.109375 C 346.359375 215.792969 347.015625 214.3125 347.34375 212.996094 C 348.496094 209.871094 351.125 206.910156 353.917969 204.773438 C 354.25 204.609375 355.398438 204.445312 355.726562 205.265625 M 365.097656 194.742188 C 366.902344 195.890625 367.5625 198.359375 369.699219 198.851562 C 373.316406 199.675781 376.929688 200.496094 380.21875 202.140625 C 382.519531 203.292969 384.65625 204.9375 386.792969 206.746094 C 388.765625 207.734375 391.230469 207.734375 393.367188 208.390625 C 396.488281 209.214844 398.957031 211.515625 401.75 213.328125 C 405.367188 216.121094 410.460938 215.792969 414.570312 217.601562 C 421.144531 219.742188 426.402344 224.839844 432.484375 227.800781 C 435.609375 229.445312 440.375 230.101562 443.496094 228.292969 C 445.632812 226.8125 446.949219 224.839844 446.457031 222.042969 C 445.304688 215.300781 437.910156 211.847656 434.457031 206.253906 C 433.800781 204.9375 433.308594 203.128906 433.636719 201.648438 C 434.949219 198.359375 438.402344 196.550781 441.359375 195.398438 C 443.660156 194.246094 446.621094 194.574219 448.757812 193.261719 C 449.578125 192.765625 450.238281 192.109375 450.730469 191.617188 C 451.222656 191.617188 451.222656 192.109375 451.386719 192.4375 C 452.042969 196.386719 451.386719 200.496094 447.933594 202.800781 C 446.621094 203.785156 444.976562 204.117188 443.496094 204.445312 C 442.183594 204.9375 439.554688 203.949219 439.71875 206.253906 C 440.046875 207.40625 441.03125 208.0625 441.855469 208.886719 C 446.457031 212.667969 450.730469 217.601562 451.222656 223.523438 C 451.386719 228.128906 448.265625 232.078125 444.320312 234.050781 C 441.359375 235.203125 437.746094 235.695312 434.621094 234.871094 C 433.800781 234.707031 432.484375 233.886719 431.828125 235.039062 C 431.664062 236.351562 432.484375 237.339844 432.484375 238.492188 C 432.8125 240.628906 432.8125 243.425781 432.15625 245.5625 C 431.828125 247.207031 430.183594 249.183594 431.664062 250.828125 C 433.144531 253.128906 436.101562 252.472656 438.566406 252.800781 C 439.882812 252.964844 440.375 254.445312 440.703125 255.433594 C 441.195312 256.75 441.195312 258.226562 441.691406 259.214844 C 441.691406 261.683594 444.484375 262.667969 445.796875 264.3125 C 447.441406 266.125 448.921875 269.25 451.714844 269.082031 C 452.703125 271.058594 453.195312 272.867188 453.523438 275.167969 L 453.195312 275.5 C 450.894531 275.5 447.769531 276.15625 446.128906 274.511719 C 444.15625 273.195312 443.496094 269.578125 440.539062 270.5625 C 439.222656 271.550781 437.417969 271.878906 435.9375 271.222656 C 434.457031 270.730469 433.472656 269.414062 432.15625 268.589844 C 428.210938 265.628906 422.953125 264.148438 417.855469 265.300781 C 414.898438 266.125 412.597656 263.984375 410.296875 262.667969 C 407.171875 261.351562 406.351562 258.0625 405.695312 255.269531 L 405.199219 251.8125 C 405.199219 251.484375 405.53125 251.15625 405.859375 250.992188 L 406.351562 250.992188 C 408.160156 255.101562 411.609375 259.707031 416.050781 261.1875 C 420.15625 262.832031 423.9375 260.695312 428.375 261.519531 C 432.484375 262.011719 435.773438 264.644531 438.894531 267.109375 C 439.222656 267.109375 439.386719 266.945312 439.554688 266.617188 L 439.554688 266.289062 C 435.773438 261.519531 430.511719 259.050781 424.429688 259.542969 C 419.335938 260.53125 414.40625 258.886719 411.445312 254.609375 C 409.804688 252.144531 408.652344 249.511719 408.160156 246.714844 C 407.667969 243.425781 407.007812 239.808594 405.859375 236.847656 C 405.53125 236.683594 405.199219 236.351562 404.871094 236.515625 L 404.542969 237.011719 C 405.035156 240.136719 406.023438 243.917969 404.871094 247.207031 C 404.050781 249.839844 401.421875 250.828125 398.957031 250.992188 C 396.488281 251.15625 394.1875 250.664062 391.558594 250.664062 C 385.640625 250.496094 380.382812 252.800781 374.300781 252.308594 C 374.792969 250.828125 375.78125 249.347656 375.285156 247.703125 C 375.121094 247.371094 374.628906 247.371094 374.300781 247.371094 C 373.148438 248.03125 373.316406 249.511719 372.65625 250.496094 C 371.34375 252.636719 368.875 254.609375 366.410156 255.101562 C 364.601562 256.417969 362.960938 258.226562 361.480469 259.875 C 360.988281 260.367188 360.988281 261.351562 361.152344 262.011719 C 362.300781 264.972656 365.753906 265.300781 368.382812 266.125 C 369.699219 266.289062 370.847656 265.792969 371.507812 264.644531 C 372.65625 262.832031 372.820312 259.875 375.453125 259.542969 L 381.203125 259.542969 C 381.695312 259.707031 382.027344 260.039062 382.355469 260.53125 L 382.191406 261.351562 C 380.875 262.832031 380.382812 264.972656 378.738281 265.957031 C 377.753906 266.289062 376.601562 265.957031 375.945312 266.78125 C 375.617188 268.753906 375.121094 270.894531 373.148438 271.878906 C 371.671875 273.195312 369.535156 272.539062 367.890625 272.042969 C 364.765625 270.894531 361.644531 270.234375 358.523438 269.25 C 357.207031 268.917969 356.714844 267.273438 355.234375 266.945312 C 353.917969 266.617188 352.441406 267.605469 351.289062 266.453125 C 350.632812 264.972656 350.304688 263.984375 349.976562 262.339844 C 349.480469 261.351562 349.152344 260.203125 348.988281 259.050781 C 348.824219 258.0625 348.988281 257.40625 349.316406 256.582031 L 353.589844 248.851562 C 353.917969 248.359375 354.25 247.867188 354.742188 247.703125 C 355.726562 247.867188 356.878906 248.359375 357.863281 248.851562 L 357.699219 249.347656 L 353.261719 256.089844 C 352.277344 258.226562 353.261719 260.695312 354.25 262.503906 C 354.414062 262.667969 354.578125 263 354.742188 262.832031 C 354.578125 261.519531 354.414062 260.203125 354.742188 258.722656 C 355.070312 257.40625 355.890625 256.253906 356.550781 255.101562 L 360 250.003906 C 360.328125 249.183594 360.328125 247.867188 359.671875 247.042969 C 358.191406 245.5625 356.054688 245.070312 354.742188 243.097656 C 351.945312 239.3125 351.617188 234.871094 351.289062 230.101562 C 351.289062 229.773438 350.960938 229.28125 350.46875 229.117188 C 350.140625 228.953125 349.808594 229.445312 349.644531 229.609375 C 348.824219 232.734375 349.316406 236.515625 350.140625 239.3125 C 350.632812 241.453125 351.617188 243.589844 352.605469 245.5625 C 352.769531 245.894531 352.441406 246.386719 352.113281 246.550781 C 349.808594 246.714844 347.507812 246.550781 345.371094 246.222656 C 342.414062 245.726562 340.277344 243.425781 337.8125 241.617188 C 337.484375 241.453125 337.320312 241.78125 337.15625 241.945312 C 337.8125 245.234375 341.429688 247.207031 342.578125 250.167969 C 343.234375 252.636719 345.703125 254.445312 346.195312 257.078125 C 346.195312 257.40625 345.867188 257.898438 345.535156 258.0625 C 344.714844 258.226562 343.894531 257.734375 343.070312 258.226562 C 342.90625 259.707031 343.894531 261.1875 343.234375 262.503906 C 342.414062 263.820312 341.261719 265.300781 339.785156 265.300781 C 336.824219 264.3125 333.867188 263 330.910156 262.175781 C 328.773438 262.011719 326.636719 262.339844 324.664062 262.503906 C 322.691406 262.175781 321.375 260.367188 319.894531 259.378906 C 319.402344 259.214844 318.910156 259.214844 318.582031 259.542969 C 315.292969 262.832031 311.679688 266.453125 306.746094 266.289062 C 306.417969 266.289062 306.253906 265.957031 306.253906 265.628906 L 306.253906 265.300781 C 308.390625 263.328125 311.019531 261.351562 312.007812 258.558594 C 312.664062 256.253906 314.636719 254.609375 315.457031 252.472656 C 315.621094 252.144531 315.292969 251.976562 314.964844 251.8125 L 314.472656 252.144531 C 312.007812 254.609375 310.199219 257.40625 308.390625 260.039062 C 306.582031 261.847656 303.953125 263 301.160156 262.339844 C 300.832031 262.175781 300.832031 261.683594 300.996094 261.351562 C 311.183594 255.101562 312.335938 243.917969 315.128906 233.722656 C 317.101562 226.976562 318.582031 220.070312 323.839844 214.640625 C 331.730469 205.925781 341.59375 200.824219 350.304688 193.261719 C 351.617188 192.109375 352.933594 190.957031 354.578125 190.957031 C 358.851562 190.628906 362.136719 192.273438 365.097656 194.742188 M 458.949219 267.4375 C 459.769531 268.589844 459.441406 270.398438 459.769531 271.714844 C 459.933594 272.703125 461.25 273.523438 460.589844 274.511719 L 456.976562 275.664062 C 456.316406 275.664062 456.648438 274.839844 456.316406 274.511719 C 455.988281 272.375 455.496094 270.894531 454.839844 268.917969 C 454.675781 267.769531 455.824219 266.945312 456.648438 266.289062 C 457.46875 265.957031 458.125 266.945312 458.949219 267.4375 M 450.566406 260.039062 C 451.878906 261.1875 453.6875 262.011719 454.675781 263.492188 C 454.839844 264.148438 454.34375 264.808594 454.015625 265.300781 C 453.523438 265.792969 452.867188 266.125 452.042969 266.125 C 451.222656 266.125 450.566406 265.628906 450.070312 264.972656 C 449.25 263.65625 448.101562 262.503906 447.769531 261.1875 C 448.265625 260.367188 449.414062 259.050781 450.566406 260.039062 M 371.34375 258.722656 C 371.175781 260.367188 370.683594 261.847656 370.027344 263.328125 C 369.535156 264.3125 368.054688 263.984375 367.070312 263.820312 C 366.082031 263.492188 364.4375 263.328125 364.273438 261.847656 C 364.109375 260.53125 364.765625 259.214844 365.425781 258.226562 C 366.902344 258.0625 368.710938 258.394531 370.191406 258.0625 C 370.847656 258.0625 371.34375 258.226562 371.34375 258.722656 "/>
<path style=" stroke:none;fill-rule:nonzero;fill:rgb(88.627451%,10.588235%,30.196078%);fill-opacity:1;" d="M 32.917969 361.191406 L 55.765625 361.191406 L 55.765625 356.421875 L 38.175781 356.421875 L 38.175781 340.300781 L 55.105469 340.300781 L 55.105469 335.53125 L 38.175781 335.53125 L 38.175781 323.691406 L 55.765625 323.691406 L 55.765625 318.921875 L 32.917969 318.921875 Z M 78.117188 361.191406 L 83.378906 361.191406 L 83.378906 329.609375 L 115.265625 363 L 115.265625 318.921875 L 110.003906 318.921875 L 110.003906 350.171875 L 78.117188 316.78125 Z M 137.945312 361.191406 L 160.628906 361.191406 L 160.628906 356.421875 L 143.207031 356.421875 L 143.207031 340.300781 L 160.136719 340.300781 L 160.136719 335.53125 L 143.207031 335.53125 L 143.207031 323.691406 L 160.628906 323.691406 L 160.628906 318.921875 L 137.945312 318.921875 Z M 195.144531 342.769531 C 201.226562 342.113281 205.335938 337.011719 205.335938 330.925781 C 205.335938 326.816406 203.363281 322.867188 199.746094 320.730469 C 196.460938 318.753906 192.351562 318.753906 188.570312 318.753906 L 182.160156 318.753906 L 182.160156 361.191406 L 187.417969 361.191406 L 187.417969 343.261719 L 189.554688 343.261719 L 202.046875 361.191406 L 208.457031 361.191406 Z M 187.417969 323.527344 L 188.898438 323.527344 C 194.160156 323.527344 200.402344 324.511719 200.402344 331.089844 C 200.402344 337.835938 194.488281 338.820312 189.226562 338.820312 L 187.582031 338.820312 L 187.582031 323.527344 Z M 246.425781 339.808594 L 246.425781 344.578125 L 257.4375 344.578125 C 257.273438 351.488281 250.207031 357.078125 243.632812 357.078125 C 234.425781 357.078125 227.195312 348.691406 227.195312 339.808594 C 227.195312 330.269531 234.589844 322.539062 244.125 322.539062 C 249.382812 322.539062 254.480469 325.335938 257.4375 329.445312 L 261.21875 325.828125 C 257.109375 320.566406 250.535156 317.605469 243.960938 317.605469 C 231.796875 317.605469 221.9375 327.636719 221.9375 339.808594 C 221.9375 351.488281 231.46875 361.847656 243.304688 361.847656 C 255.136719 361.847656 263.355469 352.96875 263.355469 341.289062 L 263.355469 339.644531 L 246.425781 339.644531 Z M 292.285156 342.769531 L 292.285156 361.191406 L 297.542969 361.191406 L 297.542969 342.769531 L 311.347656 318.921875 L 305.269531 318.921875 L 294.914062 337.011719 L 284.394531 318.921875 L 278.3125 318.921875 Z M 347.671875 361.191406 L 356.21875 361.191406 C 369.535156 361.191406 380.21875 354.28125 380.21875 339.808594 C 380.21875 325.664062 369.371094 318.753906 356.386719 318.753906 L 347.671875 318.753906 Z M 352.933594 323.691406 L 354.742188 323.691406 C 365.589844 323.691406 374.792969 327.636719 374.792969 340.136719 C 374.792969 352.472656 365.425781 356.421875 354.742188 356.421875 L 352.933594 356.421875 Z M 413.253906 342.769531 C 419.335938 342.113281 423.445312 337.011719 423.445312 330.925781 C 423.445312 326.816406 421.472656 322.867188 417.855469 320.730469 C 414.570312 318.753906 410.460938 318.753906 406.679688 318.753906 L 400.269531 318.753906 L 400.269531 361.191406 L 405.53125 361.191406 L 405.53125 343.261719 L 407.667969 343.261719 L 420.15625 361.191406 L 426.566406 361.191406 Z M 405.53125 323.527344 L 407.007812 323.527344 C 412.269531 323.527344 418.515625 324.511719 418.515625 331.089844 C 418.515625 337.835938 412.597656 338.820312 407.335938 338.820312 L 405.695312 338.820312 L 405.695312 323.527344 Z M 443.167969 318.921875 L 448.429688 318.921875 L 448.429688 361.355469 L 443.167969 361.355469 Z M 469.632812 361.191406 L 474.890625 361.191406 L 474.890625 329.609375 L 506.613281 363 L 506.613281 318.921875 L 501.355469 318.921875 L 501.355469 350.171875 L 469.632812 316.78125 Z M 533.238281 337.175781 L 533.238281 318.921875 L 527.980469 318.921875 L 527.980469 361.191406 L 533.238281 361.191406 L 533.238281 343.589844 L 535.375 341.453125 L 551.320312 361.191406 L 558.386719 361.191406 L 538.992188 337.835938 L 558.058594 318.921875 L 551.15625 318.921875 Z M 612.628906 1.808594 C 615.585938 1.808594 618.050781 2.796875 620.023438 4.933594 C 621.996094 6.90625 623.148438 9.539062 623.148438 12.335938 C 623.148438 15.296875 622.160156 17.761719 620.023438 19.738281 C 618.050781 21.875 615.421875 22.863281 612.628906 22.863281 C 609.667969 22.863281 607.203125 21.875 605.066406 19.738281 C 603.09375 17.761719 601.945312 15.132812 601.945312 12.335938 C 601.945312 9.375 602.929688 6.90625 605.066406 4.933594 C 607.203125 2.960938 609.667969 1.808594 612.628906 1.808594 M 624.953125 12.335938 C 624.953125 9.046875 623.804688 6.085938 621.339844 3.617188 C 618.875 1.316406 616.078125 0 612.628906 0 C 609.175781 0 606.382812 1.152344 603.917969 3.617188 C 601.449219 6.085938 600.300781 8.882812 600.300781 12.335938 C 600.300781 15.789062 601.449219 18.585938 603.917969 21.054688 C 606.382812 23.519531 609.175781 24.671875 612.628906 24.671875 C 616.078125 24.671875 618.875 23.519531 621.339844 21.054688 C 623.640625 18.75 624.953125 15.789062 624.953125 12.335938 M 615.914062 9.703125 C 615.914062 10.691406 615.421875 11.511719 614.433594 11.84375 C 613.941406 12.007812 613.121094 12.171875 612.132812 12.171875 L 609.996094 12.171875 L 609.996094 7.238281 L 611.96875 7.238281 C 613.285156 7.238281 614.269531 7.402344 614.929688 7.730469 C 615.585938 8.222656 615.914062 8.71875 615.914062 9.703125 M 607.695312 5.59375 L 607.695312 19.078125 L 609.996094 19.078125 L 609.996094 13.816406 L 611.804688 13.816406 C 613.121094 13.816406 613.941406 13.980469 614.433594 14.308594 C 615.257812 14.804688 615.75 15.789062 615.75 17.433594 L 615.75 19.078125 L 618.050781 19.078125 L 617.886719 18.914062 C 617.886719 18.75 617.722656 18.585938 617.722656 18.257812 L 617.722656 16.28125 C 617.722656 15.625 617.394531 14.96875 617.066406 14.144531 C 616.574219 13.488281 615.75 12.992188 614.765625 12.828125 C 615.585938 12.664062 616.242188 12.5 616.738281 12.171875 C 617.558594 11.679688 618.050781 10.691406 618.050781 9.539062 C 618.050781 7.894531 617.394531 6.742188 615.914062 6.085938 C 615.09375 5.757812 613.941406 5.59375 612.132812 5.59375 Z M 607.695312 5.59375 "/>
</g>
</svg>
