<?xml version="1.0" encoding="UTF-8"?>
<svg xmlns="http://www.w3.org/2000/svg" xmlns:xlink="http://www.w3.org/1999/xlink" width="119px" height="20px" viewBox="0 0 203 31" version="1.1">
<g id="surface1">
<path style=" stroke:none;fill-rule:nonzero;fill:rgb(100%,0%,0%);fill-opacity:1;" d="M 194.230469 30.433594 L 202.996094 30.433594 L 193.953125 0.539062 L 181.492188 0.539062 L 172.445312 30.433594 L 181.214844 30.433594 L 182.816406 24.902344 L 192.625 24.902344 L 194.230469 30.433594 M 184.710938 18.253906 L 187.695312 7.921875 L 187.746094 7.921875 L 190.730469 18.253906 Z M 184.710938 18.253906 "/>
<path style=" stroke:none;fill-rule:nonzero;fill:rgb(100%,0%,0%);fill-opacity:1;" d="M 43.769531 30.972656 C 52.769531 30.972656 57.121094 29.382812 57.738281 21.25 C 57.886719 19.3125 57.914062 17.324219 57.914062 15.484375 C 57.917969 13.648438 57.886719 11.660156 57.738281 9.722656 C 57.121094 1.585938 52.769531 0 43.769531 0 C 34.765625 0 30.417969 1.585938 29.800781 9.722656 C 29.652344 11.660156 29.621094 13.648438 29.621094 15.484375 C 29.625 17.324219 29.652344 19.3125 29.800781 21.25 C 30.417969 29.382812 34.765625 30.972656 43.769531 30.972656 M 38.105469 15.484375 C 38.105469 13.839844 38.148438 12.871094 38.183594 12.152344 C 38.410156 7.535156 40.230469 7 43.769531 7 C 47.308594 7 49.128906 7.535156 49.351562 12.152344 C 49.386719 12.871094 49.433594 13.839844 49.433594 15.484375 C 49.433594 17.128906 49.386719 18.101562 49.351562 18.820312 C 49.128906 23.4375 47.308594 23.976562 43.769531 23.976562 C 40.230469 23.976562 38.410156 23.4375 38.183594 18.820312 C 38.148438 18.101562 38.105469 17.128906 38.105469 15.484375 Z M 38.105469 15.484375 "/>
<path style=" stroke:none;fill-rule:nonzero;fill:rgb(100%,0%,0%);fill-opacity:1;" d="M 0.00390625 0.550781 L 0.00390625 8.003906 L 8.925781 8.003906 L 8.925781 30.449219 L 17.855469 30.449219 L 17.855469 8.003906 L 26.78125 8.003906 L 26.78125 0.550781 L 0.00390625 0.550781 "/>
<path style=" stroke:none;fill-rule:nonzero;fill:rgb(100%,0%,0%);fill-opacity:1;" d="M 136.984375 30.433594 L 136.984375 0.539062 L 128.511719 0.539062 L 128.511719 30.433594 L 136.984375 30.433594 "/>
<path style=" stroke:none;fill-rule:nonzero;fill:rgb(100%,0%,0%);fill-opacity:1;" d="M 102.894531 11.453125 L 102.894531 0.539062 L 94.472656 0.539062 L 94.472656 30.433594 L 102.894531 30.433594 L 102.894531 18.90625 L 112.683594 18.90625 L 112.683594 30.433594 L 121.105469 30.433594 L 121.105469 0.539062 L 112.683594 0.539062 L 112.683594 11.453125 L 102.894531 11.453125 "/>
<path style=" stroke:none;fill-rule:nonzero;fill:rgb(100%,0%,0%);fill-opacity:1;" d="M 164.851562 14.808594 C 168.605469 13.847656 169.707031 11.605469 169.707031 8.359375 C 169.707031 1.789062 165.578125 0.539062 159.707031 0.539062 L 144.496094 0.539062 L 144.496094 30.433594 L 160.460938 30.433594 C 167.8125 30.433594 170.285156 27.261719 170.285156 22.386719 C 170.285156 18.984375 169.507812 15.984375 164.851562 14.808594 M 152.917969 18.15625 L 158.761719 18.15625 C 161.121094 18.15625 161.613281 19.191406 161.613281 20.875 C 161.613281 22.558594 160.6875 23.597656 158.761719 23.597656 L 152.917969 23.597656 Z M 152.917969 7.375 L 158.761719 7.375 C 160.285156 7.375 161.230469 8.097656 161.230469 9.839844 C 161.230469 11.335938 160.296875 12.253906 158.761719 12.253906 L 152.917969 12.253906 Z M 152.917969 7.375 "/>
<path style=" stroke:none;fill-rule:nonzero;fill:rgb(100%,0%,0%);fill-opacity:1;" d="M 62.824219 20.625 L 70.855469 20.625 C 70.863281 22.074219 71.046875 23.042969 71.75 23.578125 C 72.550781 24.183594 73.265625 24.382812 75.636719 24.382812 C 77.921875 24.382812 80.425781 24.382812 80.425781 21.566406 C 80.425781 19.34375 79.027344 18.835938 76.445312 18.699219 C 70.046875 18.359375 67.730469 18.179688 65.347656 16.40625 C 63.726562 15.195312 62.882812 12.84375 62.882812 9.660156 C 62.882812 4.25 64.769531 2.351562 67.488281 1.027344 C 70.292969 -0.339844 81.308594 -0.339844 84.273438 1.027344 C 88 2.746094 88.109375 6.46875 88.109375 9.921875 L 80.097656 9.921875 C 80.085938 8.164062 79.6875 7.664062 79.367188 7.339844 C 78.535156 6.597656 77.347656 6.441406 75.636719 6.441406 C 73.566406 6.441406 71.171875 6.535156 71.171875 9.054688 C 71.171875 10.976562 72.003906 11.777344 74.179688 11.917969 C 77.171875 12.109375 83.066406 12.300781 85.167969 13.542969 C 88.113281 15.285156 88.875 17.648438 88.875 21.5 C 88.875 27.066406 86.886719 28.699219 84.117188 29.925781 C 80.925781 31.335938 70.253906 31.335938 66.785156 29.816406 C 62.902344 28.121094 62.824219 24.742188 62.824219 20.625 "/>
</g>
</svg>
